<svg width="11" height="12" viewBox="0 0 11 12" fill="none" xmlns="http://www.w3.org/2000/svg">
<g clip-path="url(#clip0_38_970)">
<path d="M8.95906 4.41386L6.45973 4.05062L5.34247 1.78557C5.31195 1.72356 5.26175 1.67336 5.19973 1.64284C5.0442 1.56606 4.8552 1.63004 4.77743 1.78557L3.66017 4.05062L1.16084 4.41386C1.09193 4.4237 1.02893 4.45618 0.9807 4.5054C0.922388 4.56534 0.890255 4.64597 0.891362 4.72959C0.89247 4.8132 0.926727 4.89295 0.986607 4.95132L2.7949 6.71434L2.36768 9.20382C2.35767 9.26173 2.36407 9.32129 2.38618 9.37575C2.40829 9.4302 2.44522 9.47737 2.49277 9.51191C2.54032 9.54645 2.5966 9.56697 2.65522 9.57115C2.71384 9.57533 2.77246 9.563 2.82443 9.53556L5.05995 8.36021L7.29547 9.53556C7.3565 9.56804 7.42737 9.57887 7.49529 9.56706C7.66658 9.53753 7.78175 9.37511 7.75222 9.20382L7.325 6.71434L9.13329 4.95132C9.18251 4.90309 9.215 4.84009 9.22484 4.77118C9.25142 4.59892 9.13133 4.43945 8.95906 4.41386V4.41386Z" fill="#FEA250"/>
</g>
<defs>
<clipPath id="clip0_38_970">
<rect width="10.08" height="10.08" fill="white" transform="translate(0.0200043 0.937988)"/>
</clipPath>
</defs>
</svg>
