<svg width="348" height="116" viewBox="0 0 348 116" fill="none" xmlns="http://www.w3.org/2000/svg">
<circle cx="31.5" cy="47.5" r="3.5" fill="#DDE0E4"/>
<circle cx="45.5" cy="47.5" r="3.5" fill="#DDE0E4"/>
<circle cx="59.5" cy="47.5" r="3.5" fill="#DDE0E4"/>
<path fill-rule="evenodd" clip-rule="evenodd" d="M3.52669 50.9999C3.5178 51 3.50891 51 3.5 51C3.49109 51 3.4822 51 3.47331 50.9999H3.24183V50.9906C1.42938 50.8585 0 49.3462 0 47.5C0 45.6538 1.42938 44.1415 3.24183 44.0094V44H3.5H17.3059V44.0053C17.3701 44.0018 17.4349 44 17.5 44C19.433 44 21 45.567 21 47.5C21 49.433 19.433 51 17.5 51C17.4349 51 17.3701 50.9982 17.3059 50.9947V50.9999H3.52669Z" fill="#DC7000"/>
<circle cx="267.929" cy="43.9286" r="12.9286" stroke="#DC7000" stroke-width="2"/>
<path d="M271.991 43.3481H265.108L267.215 40.8177C267.313 40.6992 267.361 40.5464 267.346 40.393C267.332 40.2395 267.258 40.098 267.139 39.9994C267.021 39.9009 266.868 39.8535 266.715 39.8677C266.561 39.8818 266.42 39.9564 266.321 40.0749L263.419 43.557C263.4 43.5847 263.382 43.6138 263.367 43.6441C263.367 43.6731 263.367 43.6905 263.326 43.7195C263.3 43.7861 263.286 43.8569 263.286 43.9285C263.286 44 263.3 44.0708 263.326 44.1374C263.326 44.1664 263.326 44.1838 263.367 44.2128C263.382 44.2431 263.4 44.2722 263.419 44.2999L266.321 47.782C266.376 47.8475 266.444 47.9002 266.521 47.9363C266.598 47.9725 266.683 47.9911 266.768 47.991C266.903 47.9912 267.035 47.944 267.139 47.8575C267.198 47.8088 267.247 47.7489 267.282 47.6814C267.318 47.6139 267.34 47.54 267.347 47.464C267.354 47.388 267.346 47.3113 267.323 47.2384C267.3 47.1655 267.264 47.0978 267.215 47.0392L265.108 44.5088H271.991C272.145 44.5088 272.293 44.4477 272.401 44.3388C272.51 44.23 272.571 44.0824 272.571 43.9285C272.571 43.7745 272.51 43.6269 272.401 43.5181C272.293 43.4092 272.145 43.3481 271.991 43.3481Z" fill="#DC7000"/>
<g filter="url(#filter0_d_38_973)">
<circle cx="305.072" cy="43.9286" r="13.9286" fill="#DC7000"/>
<circle cx="305.072" cy="43.9286" r="12.9286" stroke="#DC7000" stroke-width="2"/>
</g>
<path d="M301.009 43.3481H307.892L305.785 40.8177C305.687 40.6992 305.64 40.5464 305.654 40.393C305.668 40.2395 305.742 40.098 305.861 39.9994C305.979 39.9009 306.132 39.8535 306.286 39.8677C306.439 39.8818 306.581 39.9564 306.679 40.0749L309.581 43.557C309.601 43.5847 309.618 43.6138 309.633 43.6441C309.633 43.6731 309.633 43.6905 309.674 43.7195C309.7 43.7861 309.714 43.8569 309.714 43.9285C309.714 44 309.7 44.0708 309.674 44.1374C309.674 44.1664 309.674 44.1838 309.633 44.2128C309.618 44.2431 309.601 44.2722 309.581 44.2999L306.679 47.782C306.625 47.8475 306.556 47.9002 306.479 47.9363C306.402 47.9725 306.318 47.9911 306.232 47.991C306.097 47.9912 305.965 47.944 305.861 47.8575C305.802 47.8088 305.754 47.7489 305.718 47.6814C305.682 47.6139 305.66 47.54 305.653 47.464C305.646 47.388 305.654 47.3113 305.677 47.2384C305.7 47.1655 305.737 47.0978 305.785 47.0392L307.892 44.5088H301.009C300.855 44.5088 300.708 44.4477 300.599 44.3388C300.49 44.23 300.429 44.0824 300.429 43.9285C300.429 43.7745 300.49 43.6269 300.599 43.5181C300.708 43.4092 300.855 43.3481 301.009 43.3481Z" fill="white"/>
<defs>
<filter id="filter0_d_38_973" x="247.143" y="0" width="115.857" height="115.857" filterUnits="userSpaceOnUse" color-interpolation-filters="sRGB">
<feFlood flood-opacity="0" result="BackgroundImageFix"/>
<feColorMatrix in="SourceAlpha" type="matrix" values="0 0 0 0 0 0 0 0 0 0 0 0 0 0 0 0 0 0 127 0" result="hardAlpha"/>
<feOffset dy="14"/>
<feGaussianBlur stdDeviation="22"/>
<feColorMatrix type="matrix" values="0 0 0 0 0.0561111 0 0 0 0 0.0777333 0 0 0 0 0.133333 0 0 0 0.08 0"/>
<feBlend mode="normal" in2="BackgroundImageFix" result="effect1_dropShadow_38_973"/>
<feBlend mode="normal" in="SourceGraphic" in2="effect1_dropShadow_38_973" result="shape"/>
</filter>
</defs>
</svg>
