<svg width="318" height="188" viewBox="0 0 318 188" fill="none" xmlns="http://www.w3.org/2000/svg">
<rect width="318" height="188" rx="10" fill="#F4F4F4"/>
<path d="M76.746 75.14C75.4953 75.14 74.5433 74.804 73.89 74.132C73.246 73.46 72.9007 72.5313 72.854 71.346C72.8447 71.094 72.84 70.6833 72.84 70.114C72.84 69.5353 72.8447 69.1153 72.854 68.854C72.9007 67.678 73.2507 66.754 73.904 66.082C74.5573 65.4007 75.5047 65.06 76.746 65.06C77.5767 65.06 78.2813 65.2093 78.86 65.508C79.4387 65.7973 79.8773 66.18 80.176 66.656C80.4747 67.132 80.638 67.6407 80.666 68.182V68.21C80.666 68.2847 80.6333 68.35 80.568 68.406C80.512 68.4527 80.4467 68.476 80.372 68.476H79.602C79.4153 68.476 79.2987 68.3687 79.252 68.154C79.0933 67.454 78.8087 66.964 78.398 66.684C77.9873 66.3947 77.4367 66.25 76.746 66.25C75.1407 66.25 74.31 67.1413 74.254 68.924C74.2447 69.176 74.24 69.5633 74.24 70.086C74.24 70.6087 74.2447 71.0053 74.254 71.276C74.31 73.0587 75.1407 73.95 76.746 73.95C77.4367 73.95 77.9873 73.81 78.398 73.53C78.818 73.2407 79.1027 72.746 79.252 72.046C79.28 71.9247 79.322 71.8407 79.378 71.794C79.434 71.7473 79.5087 71.724 79.602 71.724H80.372C80.456 71.724 80.526 71.752 80.582 71.808C80.6473 71.8547 80.6753 71.92 80.666 72.004C80.638 72.5547 80.4747 73.068 80.176 73.544C79.8773 74.02 79.4387 74.4073 78.86 74.706C78.2813 74.9953 77.5767 75.14 76.746 75.14ZM85.3422 75.14C84.3156 75.14 83.5176 74.8507 82.9482 74.272C82.3882 73.6933 82.0896 72.9233 82.0522 71.962L82.0382 71.36L82.0522 70.758C82.0896 69.806 82.3929 69.0407 82.9622 68.462C83.5316 67.874 84.3249 67.58 85.3422 67.58C86.3596 67.58 87.1529 67.874 87.7222 68.462C88.2916 69.0407 88.5949 69.806 88.6322 70.758C88.6416 70.8607 88.6462 71.0613 88.6462 71.36C88.6462 71.6587 88.6416 71.8593 88.6322 71.962C88.5949 72.9233 88.2916 73.6933 87.7222 74.272C87.1622 74.8507 86.3689 75.14 85.3422 75.14ZM85.3422 74.062C85.9302 74.062 86.3922 73.8753 86.7282 73.502C87.0736 73.1287 87.2602 72.592 87.2882 71.892C87.2976 71.7987 87.3022 71.6213 87.3022 71.36C87.3022 71.0987 87.2976 70.9213 87.2882 70.828C87.2602 70.128 87.0736 69.5913 86.7282 69.218C86.3922 68.8447 85.9302 68.658 85.3422 68.658C84.7542 68.658 84.2876 68.8447 83.9422 69.218C83.5969 69.5913 83.4149 70.128 83.3962 70.828L83.3822 71.36L83.3962 71.892C83.4149 72.592 83.5969 73.1287 83.9422 73.502C84.2876 73.8753 84.7542 74.062 85.3422 74.062ZM93.1153 75.14C92.2286 75.14 91.5426 74.8553 91.0573 74.286C90.5719 73.7073 90.3293 72.942 90.3293 71.99V68.042C90.3293 67.9487 90.3573 67.874 90.4133 67.818C90.4786 67.7527 90.5579 67.72 90.6513 67.72H91.3513C91.4446 67.72 91.5193 67.7527 91.5753 67.818C91.6406 67.874 91.6733 67.9487 91.6733 68.042V71.92C91.6733 73.3107 92.2799 74.006 93.4933 74.006C94.0813 74.006 94.5479 73.824 94.8933 73.46C95.2386 73.0867 95.4113 72.5733 95.4113 71.92V68.042C95.4113 67.9487 95.4393 67.874 95.4953 67.818C95.5606 67.7527 95.6399 67.72 95.7333 67.72H96.4333C96.5266 67.72 96.6013 67.7527 96.6573 67.818C96.7133 67.874 96.7413 67.9487 96.7413 68.042V74.678C96.7413 74.7713 96.7133 74.8507 96.6573 74.916C96.6013 74.972 96.5266 75 96.4333 75H95.7753C95.6819 75 95.6026 74.972 95.5373 74.916C95.4813 74.8507 95.4533 74.7713 95.4533 74.678V74.062C95.1919 74.4167 94.8746 74.6873 94.5013 74.874C94.1279 75.0513 93.6659 75.14 93.1153 75.14ZM99.1432 75C99.0498 75 98.9705 74.972 98.9052 74.916C98.8492 74.8507 98.8212 74.7713 98.8212 74.678V68.042C98.8212 67.9487 98.8492 67.874 98.9052 67.818C98.9705 67.7527 99.0498 67.72 99.1432 67.72H99.8012C99.8945 67.72 99.9692 67.7527 100.025 67.818C100.09 67.874 100.123 67.9487 100.123 68.042V68.658C100.394 68.3127 100.711 68.0467 101.075 67.86C101.448 67.6733 101.91 67.58 102.461 67.58C103.357 67.58 104.052 67.8693 104.547 68.448C105.051 69.0173 105.303 69.778 105.303 70.73V74.678C105.303 74.7713 105.27 74.8507 105.205 74.916C105.149 74.972 105.074 75 104.981 75H104.281C104.188 75 104.108 74.972 104.043 74.916C103.987 74.8507 103.959 74.7713 103.959 74.678V70.8C103.959 70.1373 103.796 69.624 103.469 69.26C103.152 68.896 102.69 68.714 102.083 68.714C101.495 68.714 101.028 68.9007 100.683 69.274C100.338 69.638 100.165 70.1467 100.165 70.8V74.678C100.165 74.7713 100.132 74.8507 100.067 74.916C100.011 74.972 99.9365 75 99.8432 75H99.1432ZM110.058 75C108.583 75 107.846 74.1787 107.846 72.536V68.84H106.754C106.66 68.84 106.581 68.812 106.516 68.756C106.46 68.6907 106.432 68.6113 106.432 68.518V68.042C106.432 67.9487 106.46 67.874 106.516 67.818C106.581 67.7527 106.66 67.72 106.754 67.72H107.846V65.382C107.846 65.2887 107.874 65.214 107.93 65.158C107.995 65.0927 108.074 65.06 108.168 65.06H108.826C108.919 65.06 108.994 65.0927 109.05 65.158C109.115 65.214 109.148 65.2887 109.148 65.382V67.72H110.884C110.977 67.72 111.052 67.7527 111.108 67.818C111.173 67.874 111.206 67.9487 111.206 68.042V68.518C111.206 68.6113 111.173 68.6907 111.108 68.756C111.052 68.812 110.977 68.84 110.884 68.84H109.148V72.438C109.148 72.9047 109.227 73.2593 109.386 73.502C109.544 73.7353 109.806 73.852 110.17 73.852H111.024C111.117 73.852 111.192 73.8847 111.248 73.95C111.313 74.006 111.346 74.0807 111.346 74.174V74.678C111.346 74.7713 111.313 74.8507 111.248 74.916C111.192 74.972 111.117 75 111.024 75H110.058ZM113.006 75C112.913 75 112.834 74.972 112.768 74.916C112.712 74.8507 112.684 74.7713 112.684 74.678V68.056C112.684 67.9627 112.712 67.8833 112.768 67.818C112.834 67.7527 112.913 67.72 113.006 67.72H113.65C113.744 67.72 113.823 67.7527 113.888 67.818C113.954 67.8833 113.986 67.9627 113.986 68.056V68.672C114.369 68.0373 115.022 67.72 115.946 67.72H116.492C116.586 67.72 116.66 67.7527 116.716 67.818C116.782 67.874 116.814 67.9487 116.814 68.042V68.616C116.814 68.7093 116.782 68.784 116.716 68.84C116.66 68.896 116.586 68.924 116.492 68.924H115.652C115.148 68.924 114.752 69.0733 114.462 69.372C114.173 69.6613 114.028 70.058 114.028 70.562V74.678C114.028 74.7713 113.996 74.8507 113.93 74.916C113.865 74.972 113.786 75 113.692 75H113.006ZM118.213 66.362C118.119 66.362 118.04 66.334 117.975 66.278C117.919 66.2127 117.891 66.1333 117.891 66.04V65.284C117.891 65.1907 117.919 65.1113 117.975 65.046C118.04 64.9807 118.119 64.948 118.213 64.948H119.095C119.188 64.948 119.267 64.9807 119.333 65.046C119.398 65.1113 119.431 65.1907 119.431 65.284V66.04C119.431 66.1333 119.398 66.2127 119.333 66.278C119.267 66.334 119.188 66.362 119.095 66.362H118.213ZM118.325 75C118.231 75 118.152 74.972 118.087 74.916C118.031 74.8507 118.003 74.7713 118.003 74.678V68.042C118.003 67.9487 118.031 67.874 118.087 67.818C118.152 67.7527 118.231 67.72 118.325 67.72H118.997C119.09 67.72 119.165 67.7527 119.221 67.818C119.286 67.874 119.319 67.9487 119.319 68.042V74.678C119.319 74.7713 119.286 74.8507 119.221 74.916C119.165 74.972 119.09 75 118.997 75H118.325ZM124.305 75.14C123.344 75.14 122.574 74.846 121.995 74.258C121.426 73.6607 121.113 72.8487 121.057 71.822L121.043 71.346L121.057 70.884C121.123 69.876 121.44 69.0733 122.009 68.476C122.588 67.8787 123.349 67.58 124.291 67.58C125.327 67.58 126.13 67.9113 126.699 68.574C127.269 69.2273 127.553 70.114 127.553 71.234V71.472C127.553 71.5653 127.521 71.6447 127.455 71.71C127.399 71.766 127.325 71.794 127.231 71.794H122.387V71.92C122.415 72.5267 122.597 73.0447 122.933 73.474C123.279 73.894 123.731 74.104 124.291 74.104C124.721 74.104 125.071 74.02 125.341 73.852C125.621 73.6747 125.827 73.4927 125.957 73.306C126.041 73.194 126.102 73.1287 126.139 73.11C126.186 73.082 126.265 73.068 126.377 73.068H127.063C127.147 73.068 127.217 73.0913 127.273 73.138C127.329 73.1847 127.357 73.25 127.357 73.334C127.357 73.5393 127.227 73.7867 126.965 74.076C126.713 74.3653 126.354 74.6173 125.887 74.832C125.43 75.0373 124.903 75.14 124.305 75.14ZM126.223 70.828V70.786C126.223 70.142 126.046 69.6193 125.691 69.218C125.346 68.8073 124.879 68.602 124.291 68.602C123.703 68.602 123.237 68.8073 122.891 69.218C122.555 69.6193 122.387 70.142 122.387 70.786V70.828H126.223ZM131.747 75.14C131.094 75.14 130.543 75.0373 130.095 74.832C129.657 74.6173 129.325 74.3747 129.101 74.104C128.887 73.8333 128.779 73.6093 128.779 73.432C128.779 73.3387 128.812 73.2687 128.877 73.222C128.952 73.166 129.027 73.138 129.101 73.138H129.731C129.825 73.138 129.909 73.1847 129.983 73.278C130.207 73.5393 130.45 73.7447 130.711 73.894C130.973 74.0433 131.323 74.118 131.761 74.118C132.247 74.118 132.639 74.0247 132.937 73.838C133.245 73.642 133.399 73.376 133.399 73.04C133.399 72.816 133.334 72.634 133.203 72.494C133.082 72.3447 132.867 72.2187 132.559 72.116C132.261 72.004 131.813 71.8827 131.215 71.752C130.403 71.5747 129.825 71.318 129.479 70.982C129.143 70.646 128.975 70.212 128.975 69.68C128.975 69.3253 129.078 68.9893 129.283 68.672C129.498 68.3453 129.806 68.084 130.207 67.888C130.618 67.6827 131.108 67.58 131.677 67.58C132.275 67.58 132.783 67.678 133.203 67.874C133.623 68.07 133.936 68.3033 134.141 68.574C134.356 68.8353 134.463 69.0547 134.463 69.232C134.463 69.316 134.431 69.386 134.365 69.442C134.309 69.498 134.239 69.526 134.155 69.526H133.567C133.455 69.526 133.362 69.4793 133.287 69.386C133.138 69.2087 133.007 69.0733 132.895 68.98C132.793 68.8773 132.639 68.7887 132.433 68.714C132.237 68.6393 131.985 68.602 131.677 68.602C131.229 68.602 130.884 68.7 130.641 68.896C130.399 69.0827 130.277 69.33 130.277 69.638C130.277 69.834 130.329 70.002 130.431 70.142C130.534 70.2727 130.73 70.394 131.019 70.506C131.318 70.618 131.747 70.7347 132.307 70.856C133.194 71.0427 133.819 71.3133 134.183 71.668C134.557 72.0133 134.743 72.4567 134.743 72.998C134.743 73.3993 134.627 73.7633 134.393 74.09C134.16 74.4167 133.815 74.6733 133.357 74.86C132.909 75.0467 132.373 75.14 131.747 75.14Z" fill="#4F5665"/>
<path d="M78.025 52.17C76.9257 52.17 76.002 52 75.254 51.66C74.5173 51.32 73.9677 50.9007 73.605 50.402C73.2537 49.892 73.0667 49.382 73.044 48.872C73.044 48.77 73.078 48.685 73.146 48.617C73.2253 48.549 73.316 48.515 73.418 48.515H75.645C75.7697 48.515 75.8717 48.5377 75.951 48.583C76.0303 48.6283 76.104 48.7133 76.172 48.838C76.3987 49.4273 77.0163 49.722 78.025 49.722C78.603 49.722 79.0507 49.5917 79.368 49.331C79.6967 49.059 79.861 48.6907 79.861 48.226C79.861 47.3193 79.2717 46.866 78.093 46.866H76.206C76.0927 46.866 75.9907 46.8263 75.9 46.747C75.8207 46.6563 75.781 46.5543 75.781 46.441V45.489C75.781 45.2397 75.8717 45.047 76.053 44.911L78.841 42.548H74.115C74.0017 42.548 73.8997 42.5083 73.809 42.429C73.7297 42.3383 73.69 42.2363 73.69 42.123V40.525C73.69 40.4003 73.7297 40.2983 73.809 40.219C73.8997 40.1397 74.0017 40.1 74.115 40.1H81.935C82.0597 40.1 82.1617 40.1397 82.241 40.219C82.3317 40.2983 82.377 40.4003 82.377 40.525V41.97C82.377 42.1853 82.2863 42.3723 82.105 42.531L79.521 44.928L79.64 44.962C80.6827 45.098 81.5043 45.4493 82.105 46.016C82.717 46.5713 83.023 47.3703 83.023 48.413C83.023 49.1723 82.8077 49.8353 82.377 50.402C81.9463 50.9687 81.3513 51.405 80.592 51.711C79.8327 52.017 78.977 52.17 78.025 52.17ZM89.4691 52.17C87.9051 52.1587 86.7207 51.745 85.9161 50.929C85.1114 50.1017 84.6751 49.0193 84.6071 47.682C84.5844 47.07 84.5731 46.526 84.5731 46.05C84.5731 45.5627 84.5844 45.0017 84.6071 44.367C84.6524 43.517 84.8564 42.7633 85.2191 42.106C85.5931 41.4373 86.1371 40.9103 86.8511 40.525C87.5651 40.1283 88.4377 39.93 89.4691 39.93C90.9991 39.9413 92.1777 40.355 93.0051 41.171C93.8324 41.987 94.2801 43.0523 94.3481 44.367C94.3707 45.0017 94.3821 45.5627 94.3821 46.05C94.3821 46.526 94.3707 47.07 94.3481 47.682C94.2687 49.0193 93.8267 50.1017 93.0221 50.929C92.2174 51.745 91.0331 52.1587 89.4691 52.17ZM89.4691 49.705C90.0244 49.705 90.4381 49.5237 90.7101 49.161C90.9934 48.787 91.1464 48.2657 91.1691 47.597C91.1917 47.2683 91.2031 46.7413 91.2031 46.016C91.2031 45.2907 91.1917 44.775 91.1691 44.469C91.1464 43.823 90.9991 43.313 90.7271 42.939C90.4551 42.565 90.0357 42.3723 89.4691 42.361C88.9137 42.3723 88.4944 42.565 88.2111 42.939C87.9391 43.313 87.7917 43.823 87.7691 44.469C87.7577 44.775 87.7521 45.2907 87.7521 46.016C87.7521 46.7413 87.7577 47.2683 87.7691 47.597C87.8257 49.0023 88.3924 49.705 89.4691 49.705ZM99.7317 51.439C99.6184 51.439 99.5164 51.3993 99.4257 51.32C99.3464 51.2293 99.3067 51.1273 99.3067 51.014V47.903H96.2807C96.1561 47.903 96.0484 47.8633 95.9577 47.784C95.8784 47.7047 95.8387 47.6027 95.8387 47.478V46.237C95.8387 46.1123 95.8784 46.0103 95.9577 45.931C96.0484 45.8403 96.1561 45.795 96.2807 45.795H99.3067V42.786C99.3067 42.6613 99.3464 42.5593 99.4257 42.48C99.5164 42.4007 99.6184 42.361 99.7317 42.361H101.126C101.25 42.361 101.352 42.4007 101.432 42.48C101.511 42.5593 101.551 42.6613 101.551 42.786V45.795H104.56C104.684 45.795 104.786 45.8403 104.866 45.931C104.945 46.0103 104.985 46.1123 104.985 46.237V47.478C104.985 47.6027 104.945 47.7047 104.866 47.784C104.786 47.8633 104.684 47.903 104.56 47.903H101.551V51.014C101.551 51.1273 101.511 51.2293 101.432 51.32C101.352 51.3993 101.25 51.439 101.126 51.439H99.7317Z" fill="#0B132A"/>
<rect x="25" y="40" width="35" height="35" rx="17.5" fill="#FFECEC"/>
<path d="M46.9545 55.5908C46.9545 55.0058 46.8393 54.4265 46.6155 53.8861C46.3916 53.3456 46.0635 52.8546 45.6498 52.4409C45.2362 52.0273 44.7451 51.6992 44.2047 51.4753C43.6642 51.2515 43.085 51.1362 42.5 51.1362C41.915 51.1362 41.3358 51.2515 40.7953 51.4753C40.2549 51.6992 39.7638 52.0273 39.3502 52.4409C38.9365 52.8546 38.6084 53.3456 38.3845 53.8861C38.1607 54.4265 38.0454 55.0058 38.0454 55.5908C38.0454 56.4734 38.3064 57.2943 38.7486 57.9867H38.7435C40.2454 60.338 42.5 63.8635 42.5 63.8635L46.2564 57.9867H46.252C46.7104 57.2716 46.9543 56.4402 46.9545 55.5908ZM42.5 57.4999C41.9937 57.4999 41.5081 57.2987 41.1501 56.9407C40.792 56.5827 40.5909 56.0971 40.5909 55.5908C40.5909 55.0845 40.792 54.5989 41.1501 54.2408C41.5081 53.8828 41.9937 53.6817 42.5 53.6817C43.0063 53.6817 43.4919 53.8828 43.8499 54.2408C44.2079 54.5989 44.4091 55.0845 44.4091 55.5908C44.4091 56.0971 44.2079 56.5827 43.8499 56.9407C43.4919 57.2987 43.0063 57.4999 42.5 57.4999Z" fill="#DC7000"/>
<path d="M221.746 73.14C220.495 73.14 219.543 72.804 218.89 72.132C218.246 71.46 217.901 70.5313 217.854 69.346C217.845 69.094 217.84 68.6833 217.84 68.114C217.84 67.5353 217.845 67.1153 217.854 66.854C217.901 65.678 218.251 64.754 218.904 64.082C219.557 63.4007 220.505 63.06 221.746 63.06C222.577 63.06 223.281 63.2093 223.86 63.508C224.439 63.7973 224.877 64.18 225.176 64.656C225.475 65.132 225.638 65.6407 225.666 66.182V66.21C225.666 66.2847 225.633 66.35 225.568 66.406C225.512 66.4527 225.447 66.476 225.372 66.476H224.602C224.415 66.476 224.299 66.3687 224.252 66.154C224.093 65.454 223.809 64.964 223.398 64.684C222.987 64.3947 222.437 64.25 221.746 64.25C220.141 64.25 219.31 65.1413 219.254 66.924C219.245 67.176 219.24 67.5633 219.24 68.086C219.24 68.6087 219.245 69.0053 219.254 69.276C219.31 71.0587 220.141 71.95 221.746 71.95C222.437 71.95 222.987 71.81 223.398 71.53C223.818 71.2407 224.103 70.746 224.252 70.046C224.28 69.9247 224.322 69.8407 224.378 69.794C224.434 69.7473 224.509 69.724 224.602 69.724H225.372C225.456 69.724 225.526 69.752 225.582 69.808C225.647 69.8547 225.675 69.92 225.666 70.004C225.638 70.5547 225.475 71.068 225.176 71.544C224.877 72.02 224.439 72.4073 223.86 72.706C223.281 72.9953 222.577 73.14 221.746 73.14ZM227.696 73C227.603 73 227.524 72.972 227.458 72.916C227.402 72.8507 227.374 72.7713 227.374 72.678V63.382C227.374 63.2887 227.402 63.214 227.458 63.158C227.524 63.0927 227.603 63.06 227.696 63.06H228.354C228.448 63.06 228.522 63.0927 228.578 63.158C228.644 63.214 228.676 63.2887 228.676 63.382V72.678C228.676 72.7713 228.644 72.8507 228.578 72.916C228.522 72.972 228.448 73 228.354 73H227.696ZM230.975 64.362C230.881 64.362 230.802 64.334 230.737 64.278C230.681 64.2127 230.653 64.1333 230.653 64.04V63.284C230.653 63.1907 230.681 63.1113 230.737 63.046C230.802 62.9807 230.881 62.948 230.975 62.948H231.857C231.95 62.948 232.029 62.9807 232.095 63.046C232.16 63.1113 232.193 63.1907 232.193 63.284V64.04C232.193 64.1333 232.16 64.2127 232.095 64.278C232.029 64.334 231.95 64.362 231.857 64.362H230.975ZM231.087 73C230.993 73 230.914 72.972 230.849 72.916C230.793 72.8507 230.765 72.7713 230.765 72.678V66.042C230.765 65.9487 230.793 65.874 230.849 65.818C230.914 65.7527 230.993 65.72 231.087 65.72H231.759C231.852 65.72 231.927 65.7527 231.983 65.818C232.048 65.874 232.081 65.9487 232.081 66.042V72.678C232.081 72.7713 232.048 72.8507 231.983 72.916C231.927 72.972 231.852 73 231.759 73H231.087ZM237.067 73.14C236.106 73.14 235.336 72.846 234.757 72.258C234.188 71.6607 233.875 70.8487 233.819 69.822L233.805 69.346L233.819 68.884C233.884 67.876 234.202 67.0733 234.771 66.476C235.35 65.8787 236.11 65.58 237.053 65.58C238.089 65.58 238.892 65.9113 239.461 66.574C240.03 67.2273 240.315 68.114 240.315 69.234V69.472C240.315 69.5653 240.282 69.6447 240.217 69.71C240.161 69.766 240.086 69.794 239.993 69.794H235.149V69.92C235.177 70.5267 235.359 71.0447 235.695 71.474C236.04 71.894 236.493 72.104 237.053 72.104C237.482 72.104 237.832 72.02 238.103 71.852C238.383 71.6747 238.588 71.4927 238.719 71.306C238.803 71.194 238.864 71.1287 238.901 71.11C238.948 71.082 239.027 71.068 239.139 71.068H239.825C239.909 71.068 239.979 71.0913 240.035 71.138C240.091 71.1847 240.119 71.25 240.119 71.334C240.119 71.5393 239.988 71.7867 239.727 72.076C239.475 72.3653 239.116 72.6173 238.649 72.832C238.192 73.0373 237.664 73.14 237.067 73.14ZM238.985 68.828V68.786C238.985 68.142 238.808 67.6193 238.453 67.218C238.108 66.8073 237.641 66.602 237.053 66.602C236.465 66.602 235.998 66.8073 235.653 67.218C235.317 67.6193 235.149 68.142 235.149 68.786V68.828H238.985ZM242.311 73C242.218 73 242.138 72.972 242.073 72.916C242.017 72.8507 241.989 72.7713 241.989 72.678V66.042C241.989 65.9487 242.017 65.874 242.073 65.818C242.138 65.7527 242.218 65.72 242.311 65.72H242.969C243.062 65.72 243.137 65.7527 243.193 65.818C243.258 65.874 243.291 65.9487 243.291 66.042V66.658C243.562 66.3127 243.879 66.0467 244.243 65.86C244.616 65.6733 245.078 65.58 245.629 65.58C246.525 65.58 247.22 65.8693 247.715 66.448C248.219 67.0173 248.471 67.778 248.471 68.73V72.678C248.471 72.7713 248.438 72.8507 248.373 72.916C248.317 72.972 248.242 73 248.149 73H247.449C247.356 73 247.276 72.972 247.211 72.916C247.155 72.8507 247.127 72.7713 247.127 72.678V68.8C247.127 68.1373 246.964 67.624 246.637 67.26C246.32 66.896 245.858 66.714 245.251 66.714C244.663 66.714 244.196 66.9007 243.851 67.274C243.506 67.638 243.333 68.1467 243.333 68.8V72.678C243.333 72.7713 243.3 72.8507 243.235 72.916C243.179 72.972 243.104 73 243.011 73H242.311ZM253.226 73C251.751 73 251.014 72.1787 251.014 70.536V66.84H249.922C249.828 66.84 249.749 66.812 249.684 66.756C249.628 66.6907 249.6 66.6113 249.6 66.518V66.042C249.6 65.9487 249.628 65.874 249.684 65.818C249.749 65.7527 249.828 65.72 249.922 65.72H251.014V63.382C251.014 63.2887 251.042 63.214 251.098 63.158C251.163 63.0927 251.242 63.06 251.336 63.06H251.994C252.087 63.06 252.162 63.0927 252.218 63.158C252.283 63.214 252.316 63.2887 252.316 63.382V65.72H254.052C254.145 65.72 254.22 65.7527 254.276 65.818C254.341 65.874 254.374 65.9487 254.374 66.042V66.518C254.374 66.6113 254.341 66.6907 254.276 66.756C254.22 66.812 254.145 66.84 254.052 66.84H252.316V70.438C252.316 70.9047 252.395 71.2593 252.554 71.502C252.712 71.7353 252.974 71.852 253.338 71.852H254.192C254.285 71.852 254.36 71.8847 254.416 71.95C254.481 72.006 254.514 72.0807 254.514 72.174V72.678C254.514 72.7713 254.481 72.8507 254.416 72.916C254.36 72.972 254.285 73 254.192 73H253.226ZM258.372 73.14C257.719 73.14 257.168 73.0373 256.72 72.832C256.282 72.6173 255.95 72.3747 255.726 72.104C255.512 71.8333 255.404 71.6093 255.404 71.432C255.404 71.3387 255.437 71.2687 255.502 71.222C255.577 71.166 255.652 71.138 255.726 71.138H256.356C256.45 71.138 256.534 71.1847 256.608 71.278C256.832 71.5393 257.075 71.7447 257.336 71.894C257.598 72.0433 257.948 72.118 258.386 72.118C258.872 72.118 259.264 72.0247 259.562 71.838C259.87 71.642 260.024 71.376 260.024 71.04C260.024 70.816 259.959 70.634 259.828 70.494C259.707 70.3447 259.492 70.2187 259.184 70.116C258.886 70.004 258.438 69.8827 257.84 69.752C257.028 69.5747 256.45 69.318 256.104 68.982C255.768 68.646 255.6 68.212 255.6 67.68C255.6 67.3253 255.703 66.9893 255.908 66.672C256.123 66.3453 256.431 66.084 256.832 65.888C257.243 65.6827 257.733 65.58 258.302 65.58C258.9 65.58 259.408 65.678 259.828 65.874C260.248 66.07 260.561 66.3033 260.766 66.574C260.981 66.8353 261.088 67.0547 261.088 67.232C261.088 67.316 261.056 67.386 260.99 67.442C260.934 67.498 260.864 67.526 260.78 67.526H260.192C260.08 67.526 259.987 67.4793 259.912 67.386C259.763 67.2087 259.632 67.0733 259.52 66.98C259.418 66.8773 259.264 66.7887 259.058 66.714C258.862 66.6393 258.61 66.602 258.302 66.602C257.854 66.602 257.509 66.7 257.266 66.896C257.024 67.0827 256.902 67.33 256.902 67.638C256.902 67.834 256.954 68.002 257.056 68.142C257.159 68.2727 257.355 68.394 257.644 68.506C257.943 68.618 258.372 68.7347 258.932 68.856C259.819 69.0427 260.444 69.3133 260.808 69.668C261.182 70.0133 261.368 70.4567 261.368 70.998C261.368 71.3993 261.252 71.7633 261.018 72.09C260.785 72.4167 260.44 72.6733 259.982 72.86C259.534 73.0467 258.998 73.14 258.372 73.14Z" fill="#4F5665"/>
<path d="M219.958 53C219.856 53 219.771 52.966 219.703 52.898C219.635 52.8187 219.601 52.728 219.601 52.626C219.601 52.5467 219.624 52.473 219.669 52.405L222.066 49.124C221.919 49.158 221.754 49.175 221.573 49.175C220.87 49.1297 220.207 48.937 219.584 48.597C218.961 48.257 218.456 47.7923 218.071 47.203C217.686 46.6137 217.493 45.9393 217.493 45.18C217.493 44.432 217.68 43.735 218.054 43.089C218.428 42.443 218.978 41.9217 219.703 41.525C220.44 41.1283 221.324 40.93 222.355 40.93C223.398 40.93 224.293 41.1113 225.041 41.474C225.8 41.8367 226.373 42.3353 226.758 42.97C227.143 43.5933 227.336 44.2903 227.336 45.061C227.336 45.6843 227.206 46.251 226.945 46.761C226.696 47.271 226.322 47.8717 225.823 48.563C225.8 48.5857 225.71 48.7103 225.551 48.937L222.831 52.66C222.672 52.8867 222.468 53 222.219 53H219.958ZM222.389 46.931C222.91 46.931 223.341 46.7723 223.681 46.455C224.021 46.1377 224.191 45.707 224.191 45.163C224.191 44.619 224.021 44.1883 223.681 43.871C223.341 43.5423 222.91 43.378 222.389 43.378C221.868 43.378 221.437 43.5423 221.097 43.871C220.768 44.1883 220.604 44.619 220.604 45.163C220.604 45.707 220.774 46.1377 221.114 46.455C221.454 46.7723 221.879 46.931 222.389 46.931ZM233.654 53.17C232.09 53.1587 230.905 52.745 230.101 51.929C229.296 51.1017 228.86 50.0193 228.792 48.682C228.769 48.07 228.758 47.526 228.758 47.05C228.758 46.5627 228.769 46.0017 228.792 45.367C228.837 44.517 229.041 43.7633 229.404 43.106C229.778 42.4373 230.322 41.9103 231.036 41.525C231.75 41.1283 232.622 40.93 233.654 40.93C235.184 40.9413 236.362 41.355 237.19 42.171C238.017 42.987 238.465 44.0523 238.533 45.367C238.555 46.0017 238.567 46.5627 238.567 47.05C238.567 47.526 238.555 48.07 238.533 48.682C238.453 50.0193 238.011 51.1017 237.207 51.929C236.402 52.745 235.218 53.1587 233.654 53.17ZM233.654 50.705C234.209 50.705 234.623 50.5237 234.895 50.161C235.178 49.787 235.331 49.2657 235.354 48.597C235.376 48.2683 235.388 47.7413 235.388 47.016C235.388 46.2907 235.376 45.775 235.354 45.469C235.331 44.823 235.184 44.313 234.912 43.939C234.64 43.565 234.22 43.3723 233.654 43.361C233.098 43.3723 232.679 43.565 232.396 43.939C232.124 44.313 231.976 44.823 231.954 45.469C231.942 45.775 231.937 46.2907 231.937 47.016C231.937 47.7413 231.942 48.2683 231.954 48.597C232.01 50.0023 232.577 50.705 233.654 50.705ZM243.916 52.439C243.803 52.439 243.701 52.3993 243.61 52.32C243.531 52.2293 243.491 52.1273 243.491 52.014V48.903H240.465C240.341 48.903 240.233 48.8633 240.142 48.784C240.063 48.7047 240.023 48.6027 240.023 48.478V47.237C240.023 47.1123 240.063 47.0103 240.142 46.931C240.233 46.8403 240.341 46.795 240.465 46.795H243.491V43.786C243.491 43.6613 243.531 43.5593 243.61 43.48C243.701 43.4007 243.803 43.361 243.916 43.361H245.31C245.435 43.361 245.537 43.4007 245.616 43.48C245.696 43.5593 245.735 43.6613 245.735 43.786V46.795H248.744C248.869 46.795 248.971 46.8403 249.05 46.931C249.13 47.0103 249.169 47.1123 249.169 47.237V48.478C249.169 48.6027 249.13 48.7047 249.05 48.784C248.971 48.8633 248.869 48.903 248.744 48.903H245.735V52.014C245.735 52.1273 245.696 52.2293 245.616 52.32C245.537 52.3993 245.435 52.439 245.31 52.439H243.916Z" fill="#0B132A"/>
<rect x="168" y="41" width="35" height="35" rx="17.5" fill="#FFECEC"/>
<path fill-rule="evenodd" clip-rule="evenodd" d="M185.5 57.7361C186.108 57.7361 186.69 57.4948 187.12 57.0651C187.55 56.6355 187.791 56.0528 187.791 55.4452C187.791 54.8376 187.55 54.2549 187.12 53.8253C186.69 53.3957 186.108 53.1543 185.5 53.1543C184.893 53.1543 184.31 53.3957 183.88 53.8253C183.451 54.2549 183.209 54.8376 183.209 55.4452C183.209 56.0528 183.451 56.6355 183.88 57.0651C184.31 57.4948 184.893 57.7361 185.5 57.7361ZM182.254 64.6088C181.094 64.6088 180.118 63.6343 180.562 62.5632C180.83 61.9147 181.224 61.3254 181.72 60.829C182.217 60.3327 182.806 59.9389 183.454 59.6703C184.103 59.4017 184.798 59.2634 185.5 59.2634C186.202 59.2634 186.897 59.4017 187.546 59.6703C188.194 59.9389 188.784 60.3327 189.28 60.829C189.776 61.3254 190.17 61.9147 190.439 62.5632C190.882 63.6343 189.906 64.6088 188.746 64.6088H182.254Z" fill="#DC7000"/>
<path d="M73.54 146C73.4467 146 73.3673 145.972 73.302 145.916C73.246 145.851 73.218 145.771 73.218 145.678V136.536C73.218 136.433 73.246 136.354 73.302 136.298C73.3673 136.233 73.4467 136.2 73.54 136.2H77.096C78.1507 136.2 78.9813 136.457 79.588 136.97C80.1947 137.483 80.498 138.225 80.498 139.196C80.498 140.167 80.1947 140.909 79.588 141.422C78.9907 141.926 78.16 142.178 77.096 142.178H74.618V145.678C74.618 145.771 74.5853 145.851 74.52 145.916C74.4547 145.972 74.3753 146 74.282 146H73.54ZM77.026 141.002C77.7073 141.002 78.2207 140.848 78.566 140.54C78.9207 140.232 79.098 139.784 79.098 139.196C79.098 138.608 78.9253 138.16 78.58 137.852C78.2347 137.535 77.7167 137.376 77.026 137.376H74.604V141.002H77.026ZM82.3404 146C82.2471 146 82.1678 145.972 82.1024 145.916C82.0464 145.851 82.0184 145.771 82.0184 145.678V139.056C82.0184 138.963 82.0464 138.883 82.1024 138.818C82.1678 138.753 82.2471 138.72 82.3404 138.72H82.9844C83.0778 138.72 83.1571 138.753 83.2224 138.818C83.2878 138.883 83.3204 138.963 83.3204 139.056V139.672C83.7031 139.037 84.3564 138.72 85.2804 138.72H85.8264C85.9198 138.72 85.9944 138.753 86.0504 138.818C86.1158 138.874 86.1484 138.949 86.1484 139.042V139.616C86.1484 139.709 86.1158 139.784 86.0504 139.84C85.9944 139.896 85.9198 139.924 85.8264 139.924H84.9864C84.4824 139.924 84.0858 140.073 83.7964 140.372C83.5071 140.661 83.3624 141.058 83.3624 141.562V145.678C83.3624 145.771 83.3298 145.851 83.2644 145.916C83.1991 145.972 83.1198 146 83.0264 146H82.3404ZM90.1821 146.14C89.1554 146.14 88.3574 145.851 87.7881 145.272C87.2281 144.693 86.9294 143.923 86.8921 142.962L86.8781 142.36L86.8921 141.758C86.9294 140.806 87.2327 140.041 87.8021 139.462C88.3714 138.874 89.1647 138.58 90.1821 138.58C91.1994 138.58 91.9927 138.874 92.5621 139.462C93.1314 140.041 93.4347 140.806 93.4721 141.758C93.4814 141.861 93.4861 142.061 93.4861 142.36C93.4861 142.659 93.4814 142.859 93.4721 142.962C93.4347 143.923 93.1314 144.693 92.5621 145.272C92.0021 145.851 91.2087 146.14 90.1821 146.14ZM90.1821 145.062C90.7701 145.062 91.2321 144.875 91.5681 144.502C91.9134 144.129 92.1001 143.592 92.1281 142.892C92.1374 142.799 92.1421 142.621 92.1421 142.36C92.1421 142.099 92.1374 141.921 92.1281 141.828C92.1001 141.128 91.9134 140.591 91.5681 140.218C91.2321 139.845 90.7701 139.658 90.1821 139.658C89.5941 139.658 89.1274 139.845 88.7821 140.218C88.4367 140.591 88.2547 141.128 88.2361 141.828L88.2221 142.36L88.2361 142.892C88.2547 143.592 88.4367 144.129 88.7821 144.502C89.1274 144.875 89.5941 145.062 90.1821 145.062ZM95.5891 137.362C95.4958 137.362 95.4165 137.334 95.3511 137.278C95.2951 137.213 95.2671 137.133 95.2671 137.04V136.284C95.2671 136.191 95.2951 136.111 95.3511 136.046C95.4165 135.981 95.4958 135.948 95.5891 135.948H96.4851C96.5785 135.948 96.6578 135.981 96.7231 136.046C96.7885 136.111 96.8211 136.191 96.8211 136.284V137.04C96.8211 137.133 96.7885 137.213 96.7231 137.278C96.6578 137.334 96.5785 137.362 96.4851 137.362H95.5891ZM94.0491 148.66C93.9558 148.66 93.8811 148.627 93.8251 148.562C93.7598 148.506 93.7271 148.431 93.7271 148.338V147.862C93.7271 147.769 93.7598 147.689 93.8251 147.624C93.8811 147.568 93.9558 147.54 94.0491 147.54H94.2451C94.7025 147.54 95.0058 147.423 95.1551 147.19C95.3045 146.957 95.3791 146.611 95.3791 146.154V139.042C95.3791 138.949 95.4071 138.874 95.4631 138.818C95.5285 138.753 95.6078 138.72 95.7011 138.72H96.3871C96.4805 138.72 96.5551 138.753 96.6111 138.818C96.6765 138.874 96.7091 138.949 96.7091 139.042V146.168C96.7091 147.829 95.9111 148.66 94.3151 148.66H94.0491ZM101.706 146.14C100.744 146.14 99.9745 145.846 99.3958 145.258C98.8265 144.661 98.5138 143.849 98.4578 142.822L98.4438 142.346L98.4578 141.884C98.5231 140.876 98.8405 140.073 99.4098 139.476C99.9885 138.879 100.749 138.58 101.692 138.58C102.728 138.58 103.53 138.911 104.1 139.574C104.669 140.227 104.954 141.114 104.954 142.234V142.472C104.954 142.565 104.921 142.645 104.856 142.71C104.8 142.766 104.725 142.794 104.632 142.794H99.7878V142.92C99.8158 143.527 99.9978 144.045 100.334 144.474C100.679 144.894 101.132 145.104 101.692 145.104C102.121 145.104 102.471 145.02 102.742 144.852C103.022 144.675 103.227 144.493 103.358 144.306C103.442 144.194 103.502 144.129 103.54 144.11C103.586 144.082 103.666 144.068 103.778 144.068H104.464C104.548 144.068 104.618 144.091 104.674 144.138C104.73 144.185 104.758 144.25 104.758 144.334C104.758 144.539 104.627 144.787 104.366 145.076C104.114 145.365 103.754 145.617 103.288 145.832C102.83 146.037 102.303 146.14 101.706 146.14ZM103.624 141.828V141.786C103.624 141.142 103.446 140.619 103.092 140.218C102.746 139.807 102.28 139.602 101.692 139.602C101.104 139.602 100.637 139.807 100.292 140.218C99.9558 140.619 99.7878 141.142 99.7878 141.786V141.828H103.624ZM109.568 146.14C108.569 146.14 107.785 145.86 107.216 145.3C106.656 144.731 106.357 143.937 106.32 142.92L106.306 142.36L106.32 141.8C106.357 140.783 106.656 139.994 107.216 139.434C107.785 138.865 108.569 138.58 109.568 138.58C110.24 138.58 110.809 138.701 111.276 138.944C111.742 139.187 112.088 139.485 112.312 139.84C112.545 140.195 112.671 140.549 112.69 140.904C112.699 140.997 112.671 141.072 112.606 141.128C112.54 141.184 112.461 141.212 112.368 141.212H111.696C111.602 141.212 111.532 141.193 111.486 141.156C111.439 141.119 111.392 141.044 111.346 140.932C111.187 140.484 110.963 140.167 110.674 139.98C110.384 139.784 110.02 139.686 109.582 139.686C109.003 139.686 108.541 139.868 108.196 140.232C107.86 140.587 107.678 141.133 107.65 141.87L107.636 142.374L107.65 142.85C107.678 143.597 107.86 144.147 108.196 144.502C108.532 144.857 108.994 145.034 109.582 145.034C110.02 145.034 110.384 144.941 110.674 144.754C110.963 144.558 111.187 144.236 111.346 143.788C111.392 143.676 111.439 143.601 111.486 143.564C111.532 143.517 111.602 143.494 111.696 143.494H112.368C112.461 143.494 112.54 143.527 112.606 143.592C112.671 143.648 112.699 143.723 112.69 143.816C112.671 144.161 112.545 144.516 112.312 144.88C112.088 145.235 111.742 145.533 111.276 145.776C110.818 146.019 110.249 146.14 109.568 146.14ZM117.194 146C115.72 146 114.982 145.179 114.982 143.536V139.84H113.89C113.797 139.84 113.718 139.812 113.652 139.756C113.596 139.691 113.568 139.611 113.568 139.518V139.042C113.568 138.949 113.596 138.874 113.652 138.818C113.718 138.753 113.797 138.72 113.89 138.72H114.982V136.382C114.982 136.289 115.01 136.214 115.066 136.158C115.132 136.093 115.211 136.06 115.304 136.06H115.962C116.056 136.06 116.13 136.093 116.186 136.158C116.252 136.214 116.284 136.289 116.284 136.382V138.72H118.02C118.114 138.72 118.188 138.753 118.244 138.818C118.31 138.874 118.342 138.949 118.342 139.042V139.518C118.342 139.611 118.31 139.691 118.244 139.756C118.188 139.812 118.114 139.84 118.02 139.84H116.284V143.438C116.284 143.905 116.364 144.259 116.522 144.502C116.681 144.735 116.942 144.852 117.306 144.852H118.16C118.254 144.852 118.328 144.885 118.384 144.95C118.45 145.006 118.482 145.081 118.482 145.174V145.678C118.482 145.771 118.45 145.851 118.384 145.916C118.328 145.972 118.254 146 118.16 146H117.194ZM122.341 146.14C121.688 146.14 121.137 146.037 120.689 145.832C120.25 145.617 119.919 145.375 119.695 145.104C119.48 144.833 119.373 144.609 119.373 144.432C119.373 144.339 119.406 144.269 119.471 144.222C119.546 144.166 119.62 144.138 119.695 144.138H120.325C120.418 144.138 120.502 144.185 120.577 144.278C120.801 144.539 121.044 144.745 121.305 144.894C121.566 145.043 121.916 145.118 122.355 145.118C122.84 145.118 123.232 145.025 123.531 144.838C123.839 144.642 123.993 144.376 123.993 144.04C123.993 143.816 123.928 143.634 123.797 143.494C123.676 143.345 123.461 143.219 123.153 143.116C122.854 143.004 122.406 142.883 121.809 142.752C120.997 142.575 120.418 142.318 120.073 141.982C119.737 141.646 119.569 141.212 119.569 140.68C119.569 140.325 119.672 139.989 119.877 139.672C120.092 139.345 120.4 139.084 120.801 138.888C121.212 138.683 121.702 138.58 122.271 138.58C122.868 138.58 123.377 138.678 123.797 138.874C124.217 139.07 124.53 139.303 124.735 139.574C124.95 139.835 125.057 140.055 125.057 140.232C125.057 140.316 125.024 140.386 124.959 140.442C124.903 140.498 124.833 140.526 124.749 140.526H124.161C124.049 140.526 123.956 140.479 123.881 140.386C123.732 140.209 123.601 140.073 123.489 139.98C123.386 139.877 123.232 139.789 123.027 139.714C122.831 139.639 122.579 139.602 122.271 139.602C121.823 139.602 121.478 139.7 121.235 139.896C120.992 140.083 120.871 140.33 120.871 140.638C120.871 140.834 120.922 141.002 121.025 141.142C121.128 141.273 121.324 141.394 121.613 141.506C121.912 141.618 122.341 141.735 122.901 141.856C123.788 142.043 124.413 142.313 124.777 142.668C125.15 143.013 125.337 143.457 125.337 143.998C125.337 144.399 125.22 144.763 124.987 145.09C124.754 145.417 124.408 145.673 123.951 145.86C123.503 146.047 122.966 146.14 122.341 146.14Z" fill="#4F5665"/>
<path d="M77.94 126.187C76.92 126.187 76.0473 126.028 75.322 125.711C74.5967 125.382 74.0413 124.946 73.656 124.402C73.282 123.858 73.0837 123.269 73.061 122.634C73.061 122.532 73.095 122.447 73.163 122.379C73.231 122.311 73.316 122.277 73.418 122.277H75.696C75.9567 122.277 76.138 122.385 76.24 122.6C76.546 123.359 77.1183 123.739 77.957 123.739C78.4557 123.739 78.875 123.586 79.215 123.28C79.5663 122.963 79.742 122.526 79.742 121.971C79.742 121.472 79.572 121.064 79.232 120.747C78.9033 120.43 78.4783 120.271 77.957 120.271C77.6623 120.271 77.4243 120.311 77.243 120.39C77.073 120.458 76.8973 120.56 76.716 120.696C76.5233 120.843 76.3703 120.917 76.257 120.917H74.03C73.928 120.917 73.8373 120.883 73.758 120.815C73.69 120.736 73.656 120.645 73.656 120.543L74.268 114.61C74.2793 114.451 74.336 114.327 74.438 114.236C74.5513 114.145 74.6817 114.1 74.829 114.1H81.646C81.7707 114.1 81.8727 114.14 81.952 114.219C82.0427 114.298 82.088 114.4 82.088 114.525V116.123C82.088 116.248 82.0427 116.35 81.952 116.429C81.8727 116.508 81.7707 116.548 81.646 116.548H76.716L76.495 118.741C76.7783 118.548 77.09 118.407 77.43 118.316C77.77 118.214 78.212 118.163 78.756 118.163C79.47 118.163 80.1443 118.327 80.779 118.656C81.4137 118.973 81.918 119.427 82.292 120.016C82.6773 120.605 82.87 121.28 82.87 122.039C82.87 122.844 82.6717 123.563 82.275 124.198C81.8783 124.821 81.306 125.309 80.558 125.66C79.8213 126.011 78.9487 126.187 77.94 126.187ZM89.2532 126.17C87.6892 126.159 86.5049 125.745 85.7002 124.929C84.8956 124.102 84.4592 123.019 84.3912 121.682C84.3686 121.07 84.3572 120.526 84.3572 120.05C84.3572 119.563 84.3686 119.002 84.3912 118.367C84.4366 117.517 84.6406 116.763 85.0032 116.106C85.3772 115.437 85.9212 114.91 86.6352 114.525C87.3492 114.128 88.2219 113.93 89.2532 113.93C90.7832 113.941 91.9619 114.355 92.7892 115.171C93.6166 115.987 94.0642 117.052 94.1322 118.367C94.1549 119.002 94.1662 119.563 94.1662 120.05C94.1662 120.526 94.1549 121.07 94.1322 121.682C94.0529 123.019 93.6109 124.102 92.8062 124.929C92.0016 125.745 90.8172 126.159 89.2532 126.17ZM89.2532 123.705C89.8086 123.705 90.2222 123.524 90.4942 123.161C90.7776 122.787 90.9306 122.266 90.9532 121.597C90.9759 121.268 90.9872 120.741 90.9872 120.016C90.9872 119.291 90.9759 118.775 90.9532 118.469C90.9306 117.823 90.7832 117.313 90.5112 116.939C90.2392 116.565 89.8199 116.372 89.2532 116.361C88.6979 116.372 88.2786 116.565 87.9952 116.939C87.7232 117.313 87.5759 117.823 87.5532 118.469C87.5419 118.775 87.5362 119.291 87.5362 120.016C87.5362 120.741 87.5419 121.268 87.5532 121.597C87.6099 123.002 88.1766 123.705 89.2532 123.705ZM99.5159 125.439C99.4026 125.439 99.3006 125.399 99.2099 125.32C99.1306 125.229 99.0909 125.127 99.0909 125.014V121.903H96.0649C95.9403 121.903 95.8326 121.863 95.7419 121.784C95.6626 121.705 95.6229 121.603 95.6229 121.478V120.237C95.6229 120.112 95.6626 120.01 95.7419 119.931C95.8326 119.84 95.9403 119.795 96.0649 119.795H99.0909V116.786C99.0909 116.661 99.1306 116.559 99.2099 116.48C99.3006 116.401 99.4026 116.361 99.5159 116.361H100.91C101.035 116.361 101.137 116.401 101.216 116.48C101.295 116.559 101.335 116.661 101.335 116.786V119.795H104.344C104.469 119.795 104.571 119.84 104.65 119.931C104.729 120.01 104.769 120.112 104.769 120.237V121.478C104.769 121.603 104.729 121.705 104.65 121.784C104.571 121.863 104.469 121.903 104.344 121.903H101.335V125.014C101.335 125.127 101.295 125.229 101.216 125.32C101.137 125.399 101.035 125.439 100.91 125.439H99.5159Z" fill="#0B132A"/>
<rect x="25" y="113" width="35" height="35" rx="17.5" fill="#FFECEC"/>
<path d="M47.5911 124.773H37.4093C37.0718 124.773 36.748 124.907 36.5094 125.145C36.2707 125.384 36.1366 125.708 36.1366 126.045V128.591C36.1366 128.928 36.2707 129.252 36.5094 129.491C36.748 129.73 37.0718 129.864 37.4093 129.864H47.5911C47.9287 129.864 48.2524 129.73 48.4911 129.491C48.7298 129.252 48.8639 128.928 48.8639 128.591V126.045C48.8639 125.708 48.7298 125.384 48.4911 125.145C48.2524 124.907 47.9287 124.773 47.5911 124.773ZM44.4093 127.318C44.4093 127.67 44.1244 127.955 43.7729 127.955C43.4215 127.955 43.1366 127.67 43.1366 127.318C43.1366 126.967 43.4215 126.682 43.7729 126.682C44.1244 126.682 44.4093 126.967 44.4093 127.318ZM46.9548 127.318C46.9548 127.67 46.6699 127.955 46.3184 127.955C45.9669 127.955 45.682 127.67 45.682 127.318C45.682 126.967 45.9669 126.682 46.3184 126.682C46.6699 126.682 46.9548 126.967 46.9548 127.318ZM47.5911 131.136H37.4093C37.0718 131.136 36.748 131.27 36.5094 131.509C36.2707 131.748 36.1366 132.072 36.1366 132.409V134.955C36.1366 135.292 36.2707 135.616 36.5094 135.854C36.748 136.093 37.0718 136.227 37.4093 136.227H47.5911C47.9287 136.227 48.2524 136.093 48.4911 135.854C48.7298 135.616 48.8639 135.292 48.8639 134.955V132.409C48.8639 132.072 48.7298 131.748 48.4911 131.509C48.2524 131.27 47.9287 131.136 47.5911 131.136ZM44.4093 133.682C44.4093 134.033 44.1244 134.318 43.7729 134.318C43.4215 134.318 43.1366 134.033 43.1366 133.682C43.1366 133.33 43.4215 133.045 43.7729 133.045C44.1244 133.045 44.4093 133.33 44.4093 133.682ZM46.9548 133.682C46.9548 134.033 46.6699 134.318 46.3184 134.318C45.9669 134.318 45.682 134.033 45.682 133.682C45.682 133.33 45.9669 133.045 46.3184 133.045C46.6699 133.045 46.9548 133.33 46.9548 133.682Z" fill="#DC7000"/>
</svg>
