<svg width="1298" height="419" viewBox="0 0 1298 419" fill="none" xmlns="http://www.w3.org/2000/svg">
<g opacity="0.06" filter="url(#filter0_f_1_1137)">
<rect x="114.579" y="114.798" width="1068.84" height="189.218" rx="10" fill="#0D1025"/>
</g>
<rect x="79" y="62" width="1140" height="200" rx="10" fill="white"/>
<path d="M655.78 186.7C653.993 186.7 652.633 186.22 651.7 185.26C650.78 184.3 650.287 182.973 650.22 181.28C650.207 180.92 650.2 180.333 650.2 179.52C650.2 178.693 650.207 178.093 650.22 177.72C650.287 176.04 650.787 174.72 651.72 173.76C652.653 172.787 654.007 172.3 655.78 172.3C656.967 172.3 657.973 172.513 658.8 172.94C659.627 173.353 660.253 173.9 660.68 174.58C661.107 175.26 661.34 175.987 661.38 176.76V176.8C661.38 176.907 661.333 177 661.24 177.08C661.16 177.147 661.067 177.18 660.96 177.18H659.86C659.593 177.18 659.427 177.027 659.36 176.72C659.133 175.72 658.727 175.02 658.14 174.62C657.553 174.207 656.767 174 655.78 174C653.487 174 652.3 175.273 652.22 177.82C652.207 178.18 652.2 178.733 652.2 179.48C652.2 180.227 652.207 180.793 652.22 181.18C652.3 183.727 653.487 185 655.78 185C656.767 185 657.553 184.8 658.14 184.4C658.74 183.987 659.147 183.28 659.36 182.28C659.4 182.107 659.46 181.987 659.54 181.92C659.62 181.853 659.727 181.82 659.86 181.82H660.96C661.08 181.82 661.18 181.86 661.26 181.94C661.353 182.007 661.393 182.1 661.38 182.22C661.34 183.007 661.107 183.74 660.68 184.42C660.253 185.1 659.627 185.653 658.8 186.08C657.973 186.493 656.967 186.7 655.78 186.7ZM668.06 186.7C666.594 186.7 665.454 186.287 664.64 185.46C663.84 184.633 663.414 183.533 663.36 182.16L663.34 181.3L663.36 180.44C663.414 179.08 663.847 177.987 664.66 177.16C665.474 176.32 666.607 175.9 668.06 175.9C669.514 175.9 670.647 176.32 671.46 177.16C672.274 177.987 672.707 179.08 672.76 180.44C672.774 180.587 672.78 180.873 672.78 181.3C672.78 181.727 672.774 182.013 672.76 182.16C672.707 183.533 672.274 184.633 671.46 185.46C670.66 186.287 669.527 186.7 668.06 186.7ZM668.06 185.16C668.9 185.16 669.56 184.893 670.04 184.36C670.534 183.827 670.8 183.06 670.84 182.06C670.854 181.927 670.86 181.673 670.86 181.3C670.86 180.927 670.854 180.673 670.84 180.54C670.8 179.54 670.534 178.773 670.04 178.24C669.56 177.707 668.9 177.44 668.06 177.44C667.22 177.44 666.554 177.707 666.06 178.24C665.567 178.773 665.307 179.54 665.28 180.54L665.26 181.3L665.28 182.06C665.307 183.06 665.567 183.827 666.06 184.36C666.554 184.893 667.22 185.16 668.06 185.16ZM679.165 186.7C677.898 186.7 676.918 186.293 676.225 185.48C675.531 184.653 675.185 183.56 675.185 182.2V176.56C675.185 176.427 675.225 176.32 675.305 176.24C675.398 176.147 675.511 176.1 675.645 176.1H676.645C676.778 176.1 676.885 176.147 676.965 176.24C677.058 176.32 677.105 176.427 677.105 176.56V182.1C677.105 184.087 677.971 185.08 679.705 185.08C680.545 185.08 681.211 184.82 681.705 184.3C682.198 183.767 682.445 183.033 682.445 182.1V176.56C682.445 176.427 682.485 176.32 682.565 176.24C682.658 176.147 682.771 176.1 682.905 176.1H683.905C684.038 176.1 684.145 176.147 684.225 176.24C684.305 176.32 684.345 176.427 684.345 176.56V186.04C684.345 186.173 684.305 186.287 684.225 186.38C684.145 186.46 684.038 186.5 683.905 186.5H682.965C682.831 186.5 682.718 186.46 682.625 186.38C682.545 186.287 682.505 186.173 682.505 186.04V185.16C682.131 185.667 681.678 186.053 681.145 186.32C680.611 186.573 679.951 186.7 679.165 186.7ZM687.776 186.5C687.643 186.5 687.529 186.46 687.436 186.38C687.356 186.287 687.316 186.173 687.316 186.04V176.56C687.316 176.427 687.356 176.32 687.436 176.24C687.529 176.147 687.643 176.1 687.776 176.1H688.716C688.849 176.1 688.956 176.147 689.036 176.24C689.129 176.32 689.176 176.427 689.176 176.56V177.44C689.563 176.947 690.016 176.567 690.536 176.3C691.069 176.033 691.729 175.9 692.516 175.9C693.796 175.9 694.789 176.313 695.496 177.14C696.216 177.953 696.576 179.04 696.576 180.4V186.04C696.576 186.173 696.529 186.287 696.436 186.38C696.356 186.46 696.249 186.5 696.116 186.5H695.116C694.983 186.5 694.869 186.46 694.776 186.38C694.696 186.287 694.656 186.173 694.656 186.04V180.5C694.656 179.553 694.423 178.82 693.956 178.3C693.503 177.78 692.843 177.52 691.976 177.52C691.136 177.52 690.469 177.787 689.976 178.32C689.483 178.84 689.236 179.567 689.236 180.5V186.04C689.236 186.173 689.189 186.287 689.096 186.38C689.016 186.46 688.909 186.5 688.776 186.5H687.776ZM703.368 186.5C701.261 186.5 700.208 185.327 700.208 182.98V177.7H698.648C698.515 177.7 698.401 177.66 698.308 177.58C698.228 177.487 698.188 177.373 698.188 177.24V176.56C698.188 176.427 698.228 176.32 698.308 176.24C698.401 176.147 698.515 176.1 698.648 176.1H700.208V172.76C700.208 172.627 700.248 172.52 700.328 172.44C700.421 172.347 700.535 172.3 700.668 172.3H701.608C701.741 172.3 701.848 172.347 701.928 172.44C702.021 172.52 702.068 172.627 702.068 172.76V176.1H704.548C704.681 176.1 704.788 176.147 704.868 176.24C704.961 176.32 705.008 176.427 705.008 176.56V177.24C705.008 177.373 704.961 177.487 704.868 177.58C704.788 177.66 704.681 177.7 704.548 177.7H702.068V182.84C702.068 183.507 702.181 184.013 702.408 184.36C702.635 184.693 703.008 184.86 703.528 184.86H704.748C704.881 184.86 704.988 184.907 705.068 185C705.161 185.08 705.208 185.187 705.208 185.32V186.04C705.208 186.173 705.161 186.287 705.068 186.38C704.988 186.46 704.881 186.5 704.748 186.5H703.368ZM707.581 186.5C707.447 186.5 707.334 186.46 707.241 186.38C707.161 186.287 707.121 186.173 707.121 186.04V176.58C707.121 176.447 707.161 176.333 707.241 176.24C707.334 176.147 707.447 176.1 707.581 176.1H708.501C708.634 176.1 708.747 176.147 708.841 176.24C708.934 176.333 708.981 176.447 708.981 176.58V177.46C709.527 176.553 710.461 176.1 711.781 176.1H712.561C712.694 176.1 712.801 176.147 712.881 176.24C712.974 176.32 713.021 176.427 713.021 176.56V177.38C713.021 177.513 712.974 177.62 712.881 177.7C712.801 177.78 712.694 177.82 712.561 177.82H711.361C710.641 177.82 710.074 178.033 709.661 178.46C709.247 178.873 709.041 179.44 709.041 180.16V186.04C709.041 186.173 708.994 186.287 708.901 186.38C708.807 186.46 708.694 186.5 708.561 186.5H707.581ZM715.018 174.16C714.885 174.16 714.772 174.12 714.678 174.04C714.598 173.947 714.558 173.833 714.558 173.7V172.62C714.558 172.487 714.598 172.373 714.678 172.28C714.772 172.187 714.885 172.14 715.018 172.14H716.278C716.412 172.14 716.525 172.187 716.618 172.28C716.712 172.373 716.758 172.487 716.758 172.62V173.7C716.758 173.833 716.712 173.947 716.618 174.04C716.525 174.12 716.412 174.16 716.278 174.16H715.018ZM715.178 186.5C715.045 186.5 714.932 186.46 714.838 186.38C714.758 186.287 714.718 186.173 714.718 186.04V176.56C714.718 176.427 714.758 176.32 714.838 176.24C714.932 176.147 715.045 176.1 715.178 176.1H716.138C716.272 176.1 716.378 176.147 716.458 176.24C716.552 176.32 716.598 176.427 716.598 176.56V186.04C716.598 186.173 716.552 186.287 716.458 186.38C716.378 186.46 716.272 186.5 716.138 186.5H715.178ZM723.722 186.7C722.349 186.7 721.249 186.28 720.422 185.44C719.609 184.587 719.162 183.427 719.082 181.96L719.062 181.28L719.082 180.62C719.175 179.18 719.629 178.033 720.442 177.18C721.269 176.327 722.355 175.9 723.702 175.9C725.182 175.9 726.329 176.373 727.142 177.32C727.955 178.253 728.362 179.52 728.362 181.12V181.46C728.362 181.593 728.315 181.707 728.222 181.8C728.142 181.88 728.035 181.92 727.902 181.92H720.982V182.1C721.022 182.967 721.282 183.707 721.762 184.32C722.255 184.92 722.902 185.22 723.702 185.22C724.315 185.22 724.815 185.1 725.202 184.86C725.602 184.607 725.895 184.347 726.082 184.08C726.202 183.92 726.289 183.827 726.342 183.8C726.409 183.76 726.522 183.74 726.682 183.74H727.662C727.782 183.74 727.882 183.773 727.962 183.84C728.042 183.907 728.082 184 728.082 184.12C728.082 184.413 727.895 184.767 727.522 185.18C727.162 185.593 726.649 185.953 725.982 186.26C725.329 186.553 724.575 186.7 723.722 186.7ZM726.462 180.54V180.48C726.462 179.56 726.209 178.813 725.702 178.24C725.209 177.653 724.542 177.36 723.702 177.36C722.862 177.36 722.195 177.653 721.702 178.24C721.222 178.813 720.982 179.56 720.982 180.48V180.54H726.462ZM734.353 186.7C733.42 186.7 732.633 186.553 731.993 186.26C731.367 185.953 730.893 185.607 730.573 185.22C730.267 184.833 730.113 184.513 730.113 184.26C730.113 184.127 730.16 184.027 730.253 183.96C730.36 183.88 730.467 183.84 730.573 183.84H731.473C731.607 183.84 731.727 183.907 731.833 184.04C732.153 184.413 732.5 184.707 732.873 184.92C733.247 185.133 733.747 185.24 734.373 185.24C735.067 185.24 735.627 185.107 736.053 184.84C736.493 184.56 736.713 184.18 736.713 183.7C736.713 183.38 736.62 183.12 736.433 182.92C736.26 182.707 735.953 182.527 735.513 182.38C735.087 182.22 734.447 182.047 733.593 181.86C732.433 181.607 731.607 181.24 731.113 180.76C730.633 180.28 730.393 179.66 730.393 178.9C730.393 178.393 730.54 177.913 730.833 177.46C731.14 176.993 731.58 176.62 732.153 176.34C732.74 176.047 733.44 175.9 734.253 175.9C735.107 175.9 735.833 176.04 736.433 176.32C737.033 176.6 737.48 176.933 737.773 177.32C738.08 177.693 738.233 178.007 738.233 178.26C738.233 178.38 738.187 178.48 738.093 178.56C738.013 178.64 737.913 178.68 737.793 178.68H736.953C736.793 178.68 736.66 178.613 736.553 178.48C736.34 178.227 736.153 178.033 735.993 177.9C735.847 177.753 735.627 177.627 735.333 177.52C735.053 177.413 734.693 177.36 734.253 177.36C733.613 177.36 733.12 177.5 732.773 177.78C732.427 178.047 732.253 178.4 732.253 178.84C732.253 179.12 732.327 179.36 732.473 179.56C732.62 179.747 732.9 179.92 733.313 180.08C733.74 180.24 734.353 180.407 735.153 180.58C736.42 180.847 737.313 181.233 737.833 181.74C738.367 182.233 738.633 182.867 738.633 183.64C738.633 184.213 738.467 184.733 738.133 185.2C737.8 185.667 737.307 186.033 736.653 186.3C736.013 186.567 735.247 186.7 734.353 186.7Z" fill="#4F5665"/>
<path d="M657.175 153.75C655.542 153.75 654.167 153.5 653.05 153C651.95 152.483 651.133 151.85 650.6 151.1C650.083 150.35 649.808 149.6 649.775 148.85C649.775 148.7 649.825 148.575 649.925 148.475C650.042 148.375 650.175 148.325 650.325 148.325H653.775C653.975 148.325 654.133 148.367 654.25 148.45C654.367 148.517 654.475 148.633 654.575 148.8C654.892 149.617 655.767 150.025 657.2 150.025C658.017 150.025 658.65 149.833 659.1 149.45C659.55 149.067 659.775 148.55 659.775 147.9C659.775 146.65 658.942 146.025 657.275 146.025H654.475C654.292 146.025 654.133 145.967 654 145.85C653.883 145.717 653.825 145.558 653.825 145.375V143.9C653.825 143.517 653.967 143.233 654.25 143.05L658.275 139.75H651.375C651.208 139.75 651.058 139.692 650.925 139.575C650.808 139.442 650.75 139.292 650.75 139.125V136.65C650.75 136.467 650.808 136.317 650.925 136.2C651.042 136.067 651.192 136 651.375 136H663.025C663.208 136 663.358 136.067 663.475 136.2C663.592 136.317 663.65 136.467 663.65 136.65V138.875C663.65 139.225 663.517 139.5 663.25 139.7L659.55 143.075L659.725 143.125C661.225 143.342 662.417 143.858 663.3 144.675C664.183 145.492 664.625 146.667 664.625 148.2C664.625 149.317 664.3 150.3 663.65 151.15C663.017 151.983 662.133 152.625 661 153.075C659.883 153.525 658.608 153.75 657.175 153.75ZM674.151 153.75C671.851 153.733 670.101 153.125 668.901 151.925C667.701 150.725 667.043 149.142 666.926 147.175C666.893 146.275 666.876 145.467 666.876 144.75C666.876 144.017 666.893 143.183 666.926 142.25C666.993 141 667.301 139.892 667.851 138.925C668.418 137.942 669.226 137.167 670.276 136.6C671.343 136.033 672.634 135.75 674.151 135.75C675.668 135.75 676.959 136.033 678.026 136.6C679.093 137.167 679.901 137.942 680.451 138.925C681.018 139.892 681.334 141 681.401 142.25C681.434 142.717 681.451 143.55 681.451 144.75C681.451 145.917 681.434 146.725 681.401 147.175C681.284 149.142 680.626 150.725 679.426 151.925C678.226 153.125 676.468 153.733 674.151 153.75ZM674.151 149.975C674.934 149.975 675.518 149.725 675.901 149.225C676.284 148.708 676.493 147.983 676.526 147.05C676.559 146.567 676.576 145.783 676.576 144.7C676.576 143.617 676.559 142.85 676.526 142.4C676.493 141.5 676.284 140.792 675.901 140.275C675.518 139.742 674.934 139.475 674.151 139.475C672.651 139.475 671.859 140.45 671.776 142.4C671.759 142.85 671.751 143.617 671.751 144.7C671.751 145.783 671.759 146.567 671.776 147.05C671.859 149 672.651 149.975 674.151 149.975ZM689.216 152.675C689.049 152.675 688.899 152.617 688.766 152.5C688.649 152.367 688.591 152.217 688.591 152.05V147.525H684.191C684.024 147.525 683.874 147.467 683.741 147.35C683.624 147.217 683.566 147.067 683.566 146.9V144.975C683.566 144.792 683.624 144.642 683.741 144.525C683.857 144.392 684.007 144.325 684.191 144.325H688.591V139.95C688.591 139.767 688.649 139.617 688.766 139.5C688.899 139.383 689.049 139.325 689.216 139.325H691.366C691.549 139.325 691.699 139.383 691.816 139.5C691.949 139.617 692.016 139.767 692.016 139.95V144.325H696.366C696.549 144.325 696.699 144.392 696.816 144.525C696.949 144.642 697.016 144.792 697.016 144.975V146.9C697.016 147.083 696.949 147.233 696.816 147.35C696.699 147.467 696.549 147.525 696.366 147.525H692.016V152.05C692.016 152.233 691.949 152.383 691.816 152.5C691.699 152.617 691.549 152.675 691.366 152.675H689.216Z" fill="#0B132A"/>
<path d="M268.28 186.7C266.493 186.7 265.133 186.22 264.2 185.26C263.28 184.3 262.787 182.973 262.72 181.28C262.707 180.92 262.7 180.333 262.7 179.52C262.7 178.693 262.707 178.093 262.72 177.72C262.787 176.04 263.287 174.72 264.22 173.76C265.153 172.787 266.507 172.3 268.28 172.3C269.467 172.3 270.473 172.513 271.3 172.94C272.127 173.353 272.753 173.9 273.18 174.58C273.607 175.26 273.84 175.987 273.88 176.76V176.8C273.88 176.907 273.833 177 273.74 177.08C273.66 177.147 273.567 177.18 273.46 177.18H272.36C272.093 177.18 271.927 177.027 271.86 176.72C271.633 175.72 271.227 175.02 270.64 174.62C270.053 174.207 269.267 174 268.28 174C265.987 174 264.8 175.273 264.72 177.82C264.707 178.18 264.7 178.733 264.7 179.48C264.7 180.227 264.707 180.793 264.72 181.18C264.8 183.727 265.987 185 268.28 185C269.267 185 270.053 184.8 270.64 184.4C271.24 183.987 271.647 183.28 271.86 182.28C271.9 182.107 271.96 181.987 272.04 181.92C272.12 181.853 272.227 181.82 272.36 181.82H273.46C273.58 181.82 273.68 181.86 273.76 181.94C273.853 182.007 273.893 182.1 273.88 182.22C273.84 183.007 273.607 183.74 273.18 184.42C272.753 185.1 272.127 185.653 271.3 186.08C270.473 186.493 269.467 186.7 268.28 186.7ZM276.78 186.5C276.647 186.5 276.534 186.46 276.44 186.38C276.36 186.287 276.32 186.173 276.32 186.04V172.76C276.32 172.627 276.36 172.52 276.44 172.44C276.534 172.347 276.647 172.3 276.78 172.3H277.72C277.854 172.3 277.96 172.347 278.04 172.44C278.134 172.52 278.18 172.627 278.18 172.76V186.04C278.18 186.173 278.134 186.287 278.04 186.38C277.96 186.46 277.854 186.5 277.72 186.5H276.78ZM281.464 174.16C281.33 174.16 281.217 174.12 281.124 174.04C281.044 173.947 281.004 173.833 281.004 173.7V172.62C281.004 172.487 281.044 172.373 281.124 172.28C281.217 172.187 281.33 172.14 281.464 172.14H282.724C282.857 172.14 282.97 172.187 283.064 172.28C283.157 172.373 283.204 172.487 283.204 172.62V173.7C283.204 173.833 283.157 173.947 283.064 174.04C282.97 174.12 282.857 174.16 282.724 174.16H281.464ZM281.624 186.5C281.49 186.5 281.377 186.46 281.284 186.38C281.204 186.287 281.164 186.173 281.164 186.04V176.56C281.164 176.427 281.204 176.32 281.284 176.24C281.377 176.147 281.49 176.1 281.624 176.1H282.584C282.717 176.1 282.824 176.147 282.904 176.24C282.997 176.32 283.044 176.427 283.044 176.56V186.04C283.044 186.173 282.997 186.287 282.904 186.38C282.824 186.46 282.717 186.5 282.584 186.5H281.624ZM290.167 186.7C288.794 186.7 287.694 186.28 286.867 185.44C286.054 184.587 285.607 183.427 285.527 181.96L285.507 181.28L285.527 180.62C285.621 179.18 286.074 178.033 286.887 177.18C287.714 176.327 288.801 175.9 290.147 175.9C291.627 175.9 292.774 176.373 293.587 177.32C294.401 178.253 294.807 179.52 294.807 181.12V181.46C294.807 181.593 294.761 181.707 294.667 181.8C294.587 181.88 294.481 181.92 294.347 181.92H287.427V182.1C287.467 182.967 287.727 183.707 288.207 184.32C288.701 184.92 289.347 185.22 290.147 185.22C290.761 185.22 291.261 185.1 291.647 184.86C292.047 184.607 292.341 184.347 292.527 184.08C292.647 183.92 292.734 183.827 292.787 183.8C292.854 183.76 292.967 183.74 293.127 183.74H294.107C294.227 183.74 294.327 183.773 294.407 183.84C294.487 183.907 294.527 184 294.527 184.12C294.527 184.413 294.341 184.767 293.967 185.18C293.607 185.593 293.094 185.953 292.427 186.26C291.774 186.553 291.021 186.7 290.167 186.7ZM292.907 180.54V180.48C292.907 179.56 292.654 178.813 292.147 178.24C291.654 177.653 290.987 177.36 290.147 177.36C289.307 177.36 288.641 177.653 288.147 178.24C287.667 178.813 287.427 179.56 287.427 180.48V180.54H292.907ZM297.659 186.5C297.525 186.5 297.412 186.46 297.319 186.38C297.239 186.287 297.199 186.173 297.199 186.04V176.56C297.199 176.427 297.239 176.32 297.319 176.24C297.412 176.147 297.525 176.1 297.659 176.1H298.599C298.732 176.1 298.839 176.147 298.919 176.24C299.012 176.32 299.059 176.427 299.059 176.56V177.44C299.445 176.947 299.899 176.567 300.419 176.3C300.952 176.033 301.612 175.9 302.399 175.9C303.679 175.9 304.672 176.313 305.379 177.14C306.099 177.953 306.459 179.04 306.459 180.4V186.04C306.459 186.173 306.412 186.287 306.319 186.38C306.239 186.46 306.132 186.5 305.999 186.5H304.999C304.865 186.5 304.752 186.46 304.659 186.38C304.579 186.287 304.539 186.173 304.539 186.04V180.5C304.539 179.553 304.305 178.82 303.839 178.3C303.385 177.78 302.725 177.52 301.859 177.52C301.019 177.52 300.352 177.787 299.859 178.32C299.365 178.84 299.119 179.567 299.119 180.5V186.04C299.119 186.173 299.072 186.287 298.979 186.38C298.899 186.46 298.792 186.5 298.659 186.5H297.659ZM313.251 186.5C311.144 186.5 310.091 185.327 310.091 182.98V177.7H308.531C308.398 177.7 308.284 177.66 308.191 177.58C308.111 177.487 308.071 177.373 308.071 177.24V176.56C308.071 176.427 308.111 176.32 308.191 176.24C308.284 176.147 308.398 176.1 308.531 176.1H310.091V172.76C310.091 172.627 310.131 172.52 310.211 172.44C310.304 172.347 310.418 172.3 310.551 172.3H311.491C311.624 172.3 311.731 172.347 311.811 172.44C311.904 172.52 311.951 172.627 311.951 172.76V176.1H314.431C314.564 176.1 314.671 176.147 314.751 176.24C314.844 176.32 314.891 176.427 314.891 176.56V177.24C314.891 177.373 314.844 177.487 314.751 177.58C314.671 177.66 314.564 177.7 314.431 177.7H311.951V182.84C311.951 183.507 312.064 184.013 312.291 184.36C312.518 184.693 312.891 184.86 313.411 184.86H314.631C314.764 184.86 314.871 184.907 314.951 185C315.044 185.08 315.091 185.187 315.091 185.32V186.04C315.091 186.173 315.044 186.287 314.951 186.38C314.871 186.46 314.764 186.5 314.631 186.5H313.251ZM320.603 186.7C319.67 186.7 318.883 186.553 318.243 186.26C317.617 185.953 317.143 185.607 316.823 185.22C316.517 184.833 316.363 184.513 316.363 184.26C316.363 184.127 316.41 184.027 316.503 183.96C316.61 183.88 316.717 183.84 316.823 183.84H317.723C317.857 183.84 317.977 183.907 318.083 184.04C318.403 184.413 318.75 184.707 319.123 184.92C319.497 185.133 319.997 185.24 320.623 185.24C321.317 185.24 321.877 185.107 322.303 184.84C322.743 184.56 322.963 184.18 322.963 183.7C322.963 183.38 322.87 183.12 322.683 182.92C322.51 182.707 322.203 182.527 321.763 182.38C321.337 182.22 320.697 182.047 319.843 181.86C318.683 181.607 317.857 181.24 317.363 180.76C316.883 180.28 316.643 179.66 316.643 178.9C316.643 178.393 316.79 177.913 317.083 177.46C317.39 176.993 317.83 176.62 318.403 176.34C318.99 176.047 319.69 175.9 320.503 175.9C321.357 175.9 322.083 176.04 322.683 176.32C323.283 176.6 323.73 176.933 324.023 177.32C324.33 177.693 324.483 178.007 324.483 178.26C324.483 178.38 324.437 178.48 324.343 178.56C324.263 178.64 324.163 178.68 324.043 178.68H323.203C323.043 178.68 322.91 178.613 322.803 178.48C322.59 178.227 322.403 178.033 322.243 177.9C322.097 177.753 321.877 177.627 321.583 177.52C321.303 177.413 320.943 177.36 320.503 177.36C319.863 177.36 319.37 177.5 319.023 177.78C318.677 178.047 318.503 178.4 318.503 178.84C318.503 179.12 318.577 179.36 318.723 179.56C318.87 179.747 319.15 179.92 319.563 180.08C319.99 180.24 320.603 180.407 321.403 180.58C322.67 180.847 323.563 181.233 324.083 181.74C324.617 182.233 324.883 182.867 324.883 183.64C324.883 184.213 324.717 184.733 324.383 185.2C324.05 185.667 323.557 186.033 322.903 186.3C322.263 186.567 321.497 186.7 320.603 186.7Z" fill="#4F5665"/>
<path d="M265.8 153.5C265.65 153.5 265.525 153.45 265.425 153.35C265.325 153.233 265.275 153.1 265.275 152.95C265.275 152.833 265.308 152.725 265.375 152.625L268.875 147.85C268.658 147.9 268.433 147.917 268.2 147.9C267.183 147.833 266.217 147.558 265.3 147.075C264.383 146.575 263.633 145.892 263.05 145.025C262.483 144.142 262.2 143.142 262.2 142.025C262.2 140.925 262.475 139.9 263.025 138.95C263.592 137.983 264.417 137.208 265.5 136.625C266.6 136.042 267.917 135.75 269.45 135.75C271 135.75 272.333 136.017 273.45 136.55C274.567 137.083 275.408 137.817 275.975 138.75C276.558 139.667 276.85 140.7 276.85 141.85C276.85 142.767 276.658 143.608 276.275 144.375C275.908 145.125 275.35 146.008 274.6 147.025L274.15 147.65L270.225 153C269.992 153.333 269.692 153.5 269.325 153.5H265.8ZM269.5 144.5C270.233 144.5 270.833 144.275 271.3 143.825C271.783 143.375 272.025 142.767 272.025 142C272.025 141.233 271.783 140.625 271.3 140.175C270.817 139.725 270.217 139.5 269.5 139.5C268.767 139.5 268.158 139.725 267.675 140.175C267.208 140.625 266.975 141.233 266.975 142C266.975 142.767 267.208 143.375 267.675 143.825C268.142 144.275 268.75 144.5 269.5 144.5ZM286.187 153.75C283.887 153.733 282.137 153.125 280.937 151.925C279.737 150.725 279.079 149.142 278.962 147.175C278.929 146.275 278.912 145.467 278.912 144.75C278.912 144.017 278.929 143.183 278.962 142.25C279.029 141 279.337 139.892 279.887 138.925C280.454 137.942 281.262 137.167 282.312 136.6C283.379 136.033 284.67 135.75 286.187 135.75C287.704 135.75 288.995 136.033 290.062 136.6C291.129 137.167 291.937 137.942 292.487 138.925C293.054 139.892 293.37 141 293.437 142.25C293.47 142.717 293.487 143.55 293.487 144.75C293.487 145.917 293.47 146.725 293.437 147.175C293.32 149.142 292.662 150.725 291.462 151.925C290.262 153.125 288.504 153.733 286.187 153.75ZM286.187 149.975C286.97 149.975 287.554 149.725 287.937 149.225C288.32 148.708 288.529 147.983 288.562 147.05C288.595 146.567 288.612 145.783 288.612 144.7C288.612 143.617 288.595 142.85 288.562 142.4C288.529 141.5 288.32 140.792 287.937 140.275C287.554 139.742 286.97 139.475 286.187 139.475C284.687 139.475 283.895 140.45 283.812 142.4C283.795 142.85 283.787 143.617 283.787 144.7C283.787 145.783 283.795 146.567 283.812 147.05C283.895 149 284.687 149.975 286.187 149.975ZM301.252 152.675C301.085 152.675 300.935 152.617 300.802 152.5C300.685 152.367 300.627 152.217 300.627 152.05V147.525H296.227C296.06 147.525 295.91 147.467 295.777 147.35C295.66 147.217 295.602 147.067 295.602 146.9V144.975C295.602 144.792 295.66 144.642 295.777 144.525C295.894 144.392 296.044 144.325 296.227 144.325H300.627V139.95C300.627 139.767 300.685 139.617 300.802 139.5C300.935 139.383 301.085 139.325 301.252 139.325H303.402C303.585 139.325 303.735 139.383 303.852 139.5C303.985 139.617 304.052 139.767 304.052 139.95V144.325H308.402C308.585 144.325 308.735 144.392 308.852 144.525C308.985 144.642 309.052 144.792 309.052 144.975V146.9C309.052 147.083 308.985 147.233 308.852 147.35C308.735 147.467 308.585 147.525 308.402 147.525H304.052V152.05C304.052 152.233 303.985 152.383 303.852 152.5C303.735 152.617 303.585 152.675 303.402 152.675H301.252Z" fill="#0B132A"/>
<path d="M1059.7 186.5C1059.57 186.5 1059.45 186.46 1059.36 186.38C1059.28 186.287 1059.24 186.173 1059.24 186.04V172.98C1059.24 172.833 1059.28 172.72 1059.36 172.64C1059.45 172.547 1059.57 172.5 1059.7 172.5H1064.78C1066.29 172.5 1067.47 172.867 1068.34 173.6C1069.21 174.333 1069.64 175.393 1069.64 176.78C1069.64 178.167 1069.21 179.227 1068.34 179.96C1067.49 180.68 1066.3 181.04 1064.78 181.04H1061.24V186.04C1061.24 186.173 1061.19 186.287 1061.1 186.38C1061.01 186.46 1060.89 186.5 1060.76 186.5H1059.7ZM1064.68 179.36C1065.65 179.36 1066.39 179.14 1066.88 178.7C1067.39 178.26 1067.64 177.62 1067.64 176.78C1067.64 175.94 1067.39 175.3 1066.9 174.86C1066.41 174.407 1065.67 174.18 1064.68 174.18H1061.22V179.36H1064.68ZM1072.27 186.5C1072.14 186.5 1072.03 186.46 1071.93 186.38C1071.85 186.287 1071.81 186.173 1071.81 186.04V176.58C1071.81 176.447 1071.85 176.333 1071.93 176.24C1072.03 176.147 1072.14 176.1 1072.27 176.1H1073.19C1073.33 176.1 1073.44 176.147 1073.53 176.24C1073.63 176.333 1073.67 176.447 1073.67 176.58V177.46C1074.22 176.553 1075.15 176.1 1076.47 176.1H1077.25C1077.39 176.1 1077.49 176.147 1077.57 176.24C1077.67 176.32 1077.71 176.427 1077.71 176.56V177.38C1077.71 177.513 1077.67 177.62 1077.57 177.7C1077.49 177.78 1077.39 177.82 1077.25 177.82H1076.05C1075.33 177.82 1074.77 178.033 1074.35 178.46C1073.94 178.873 1073.73 179.44 1073.73 180.16V186.04C1073.73 186.173 1073.69 186.287 1073.59 186.38C1073.5 186.46 1073.39 186.5 1073.25 186.5H1072.27ZM1083.47 186.7C1082.01 186.7 1080.87 186.287 1080.05 185.46C1079.25 184.633 1078.83 183.533 1078.77 182.16L1078.75 181.3L1078.77 180.44C1078.83 179.08 1079.26 177.987 1080.07 177.16C1080.89 176.32 1082.02 175.9 1083.47 175.9C1084.93 175.9 1086.06 176.32 1086.87 177.16C1087.69 177.987 1088.12 179.08 1088.17 180.44C1088.19 180.587 1088.19 180.873 1088.19 181.3C1088.19 181.727 1088.19 182.013 1088.17 182.16C1088.12 183.533 1087.69 184.633 1086.87 185.46C1086.07 186.287 1084.94 186.7 1083.47 186.7ZM1083.47 185.16C1084.31 185.16 1084.97 184.893 1085.45 184.36C1085.95 183.827 1086.21 183.06 1086.25 182.06C1086.27 181.927 1086.27 181.673 1086.27 181.3C1086.27 180.927 1086.27 180.673 1086.25 180.54C1086.21 179.54 1085.95 178.773 1085.45 178.24C1084.97 177.707 1084.31 177.44 1083.47 177.44C1082.63 177.44 1081.97 177.707 1081.47 178.24C1080.98 178.773 1080.72 179.54 1080.69 180.54L1080.67 181.3L1080.69 182.06C1080.72 183.06 1080.98 183.827 1081.47 184.36C1081.97 184.893 1082.63 185.16 1083.47 185.16ZM1091.2 174.16C1091.07 174.16 1090.95 174.12 1090.86 174.04C1090.78 173.947 1090.74 173.833 1090.74 173.7V172.62C1090.74 172.487 1090.78 172.373 1090.86 172.28C1090.95 172.187 1091.07 172.14 1091.2 172.14H1092.48C1092.61 172.14 1092.73 172.187 1092.82 172.28C1092.91 172.373 1092.96 172.487 1092.96 172.62V173.7C1092.96 173.833 1092.91 173.947 1092.82 174.04C1092.73 174.12 1092.61 174.16 1092.48 174.16H1091.2ZM1089 190.3C1088.87 190.3 1088.76 190.253 1088.68 190.16C1088.59 190.08 1088.54 189.973 1088.54 189.84V189.16C1088.54 189.027 1088.59 188.913 1088.68 188.82C1088.76 188.74 1088.87 188.7 1089 188.7H1089.28C1089.93 188.7 1090.37 188.533 1090.58 188.2C1090.79 187.867 1090.9 187.373 1090.9 186.72V176.56C1090.9 176.427 1090.94 176.32 1091.02 176.24C1091.11 176.147 1091.23 176.1 1091.36 176.1H1092.34C1092.47 176.1 1092.58 176.147 1092.66 176.24C1092.75 176.32 1092.8 176.427 1092.8 176.56V186.74C1092.8 189.113 1091.66 190.3 1089.38 190.3H1089ZM1099.94 186.7C1098.56 186.7 1097.46 186.28 1096.64 185.44C1095.82 184.587 1095.38 183.427 1095.3 181.96L1095.28 181.28L1095.3 180.62C1095.39 179.18 1095.84 178.033 1096.66 177.18C1097.48 176.327 1098.57 175.9 1099.92 175.9C1101.4 175.9 1102.54 176.373 1103.36 177.32C1104.17 178.253 1104.58 179.52 1104.58 181.12V181.46C1104.58 181.593 1104.53 181.707 1104.44 181.8C1104.36 181.88 1104.25 181.92 1104.12 181.92H1097.2V182.1C1097.24 182.967 1097.5 183.707 1097.98 184.32C1098.47 184.92 1099.12 185.22 1099.92 185.22C1100.53 185.22 1101.03 185.1 1101.42 184.86C1101.82 184.607 1102.11 184.347 1102.3 184.08C1102.42 183.92 1102.5 183.827 1102.56 183.8C1102.62 183.76 1102.74 183.74 1102.9 183.74H1103.88C1104 183.74 1104.1 183.773 1104.18 183.84C1104.26 183.907 1104.3 184 1104.3 184.12C1104.3 184.413 1104.11 184.767 1103.74 185.18C1103.38 185.593 1102.86 185.953 1102.2 186.26C1101.54 186.553 1100.79 186.7 1099.94 186.7ZM1102.68 180.54V180.48C1102.68 179.56 1102.42 178.813 1101.92 178.24C1101.42 177.653 1100.76 177.36 1099.92 177.36C1099.08 177.36 1098.41 177.653 1097.92 178.24C1097.44 178.813 1097.2 179.56 1097.2 180.48V180.54H1102.68ZM1111.17 186.7C1109.74 186.7 1108.62 186.3 1107.81 185.5C1107.01 184.687 1106.58 183.553 1106.53 182.1L1106.51 181.3L1106.53 180.5C1106.58 179.047 1107.01 177.92 1107.81 177.12C1108.62 176.307 1109.74 175.9 1111.17 175.9C1112.13 175.9 1112.94 176.073 1113.61 176.42C1114.27 176.767 1114.77 177.193 1115.09 177.7C1115.42 178.207 1115.6 178.713 1115.63 179.22C1115.64 179.353 1115.6 179.46 1115.51 179.54C1115.41 179.62 1115.3 179.66 1115.17 179.66H1114.21C1114.07 179.66 1113.97 179.633 1113.91 179.58C1113.84 179.527 1113.77 179.42 1113.71 179.26C1113.48 178.62 1113.16 178.167 1112.75 177.9C1112.33 177.62 1111.81 177.48 1111.19 177.48C1110.36 177.48 1109.7 177.74 1109.21 178.26C1108.73 178.767 1108.47 179.547 1108.43 180.6L1108.41 181.32L1108.43 182C1108.47 183.067 1108.73 183.853 1109.21 184.36C1109.69 184.867 1110.35 185.12 1111.19 185.12C1111.81 185.12 1112.33 184.987 1112.75 184.72C1113.16 184.44 1113.48 183.98 1113.71 183.34C1113.77 183.18 1113.84 183.073 1113.91 183.02C1113.97 182.953 1114.07 182.92 1114.21 182.92H1115.17C1115.3 182.92 1115.41 182.967 1115.51 183.06C1115.6 183.14 1115.64 183.247 1115.63 183.38C1115.6 183.873 1115.42 184.38 1115.09 184.9C1114.77 185.407 1114.27 185.833 1113.61 186.18C1112.95 186.527 1112.14 186.7 1111.17 186.7ZM1122.06 186.5C1119.96 186.5 1118.9 185.327 1118.9 182.98V177.7H1117.34C1117.21 177.7 1117.1 177.66 1117 177.58C1116.92 177.487 1116.88 177.373 1116.88 177.24V176.56C1116.88 176.427 1116.92 176.32 1117 176.24C1117.1 176.147 1117.21 176.1 1117.34 176.1H1118.9V172.76C1118.9 172.627 1118.94 172.52 1119.02 172.44C1119.12 172.347 1119.23 172.3 1119.36 172.3H1120.3C1120.44 172.3 1120.54 172.347 1120.62 172.44C1120.72 172.52 1120.76 172.627 1120.76 172.76V176.1H1123.24C1123.38 176.1 1123.48 176.147 1123.56 176.24C1123.66 176.32 1123.7 176.427 1123.7 176.56V177.24C1123.7 177.373 1123.66 177.487 1123.56 177.58C1123.48 177.66 1123.38 177.7 1123.24 177.7H1120.76V182.84C1120.76 183.507 1120.88 184.013 1121.1 184.36C1121.33 184.693 1121.7 184.86 1122.22 184.86H1123.44C1123.58 184.86 1123.68 184.907 1123.76 185C1123.86 185.08 1123.9 185.187 1123.9 185.32V186.04C1123.9 186.173 1123.86 186.287 1123.76 186.38C1123.68 186.46 1123.58 186.5 1123.44 186.5H1122.06ZM1129.42 186.7C1128.48 186.7 1127.7 186.553 1127.06 186.26C1126.43 185.953 1125.96 185.607 1125.64 185.22C1125.33 184.833 1125.18 184.513 1125.18 184.26C1125.18 184.127 1125.22 184.027 1125.32 183.96C1125.42 183.88 1125.53 183.84 1125.64 183.84H1126.54C1126.67 183.84 1126.79 183.907 1126.9 184.04C1127.22 184.413 1127.56 184.707 1127.94 184.92C1128.31 185.133 1128.81 185.24 1129.44 185.24C1130.13 185.24 1130.69 185.107 1131.12 184.84C1131.56 184.56 1131.78 184.18 1131.78 183.7C1131.78 183.38 1131.68 183.12 1131.5 182.92C1131.32 182.707 1131.02 182.527 1130.58 182.38C1130.15 182.22 1129.51 182.047 1128.66 181.86C1127.5 181.607 1126.67 181.24 1126.18 180.76C1125.7 180.28 1125.46 179.66 1125.46 178.9C1125.46 178.393 1125.6 177.913 1125.9 177.46C1126.2 176.993 1126.64 176.62 1127.22 176.34C1127.8 176.047 1128.5 175.9 1129.32 175.9C1130.17 175.9 1130.9 176.04 1131.5 176.32C1132.1 176.6 1132.54 176.933 1132.84 177.32C1133.14 177.693 1133.3 178.007 1133.3 178.26C1133.3 178.38 1133.25 178.48 1133.16 178.56C1133.08 178.64 1132.98 178.68 1132.86 178.68H1132.02C1131.86 178.68 1131.72 178.613 1131.62 178.48C1131.4 178.227 1131.22 178.033 1131.06 177.9C1130.91 177.753 1130.69 177.627 1130.4 177.52C1130.12 177.413 1129.76 177.36 1129.32 177.36C1128.68 177.36 1128.18 177.5 1127.84 177.78C1127.49 178.047 1127.32 178.4 1127.32 178.84C1127.32 179.12 1127.39 179.36 1127.54 179.56C1127.68 179.747 1127.96 179.92 1128.38 180.08C1128.8 180.24 1129.42 180.407 1130.22 180.58C1131.48 180.847 1132.38 181.233 1132.9 181.74C1133.43 182.233 1133.7 182.867 1133.7 183.64C1133.7 184.213 1133.53 184.733 1133.2 185.2C1132.86 185.667 1132.37 186.033 1131.72 186.3C1131.08 186.567 1130.31 186.7 1129.42 186.7Z" fill="#4F5665"/>
<path d="M1065.58 153.775C1064.06 153.775 1062.75 153.533 1061.65 153.05C1060.57 152.567 1059.74 151.925 1059.18 151.125C1058.63 150.325 1058.33 149.45 1058.3 148.5C1058.3 148.35 1058.35 148.225 1058.45 148.125C1058.55 148.025 1058.68 147.975 1058.83 147.975H1062.35C1062.75 147.975 1063.03 148.133 1063.18 148.45C1063.41 149 1063.72 149.4 1064.1 149.65C1064.5 149.9 1064.99 150.025 1065.58 150.025C1066.29 150.025 1066.88 149.808 1067.35 149.375C1067.83 148.942 1068.08 148.333 1068.08 147.55C1068.08 146.867 1067.84 146.3 1067.38 145.85C1066.91 145.4 1066.31 145.175 1065.58 145.175C1065.16 145.175 1064.83 145.233 1064.58 145.35C1064.33 145.45 1064.08 145.592 1063.85 145.775C1063.6 145.975 1063.38 146.075 1063.2 146.075H1059.73C1059.58 146.075 1059.44 146.025 1059.33 145.925C1059.23 145.808 1059.18 145.675 1059.18 145.525L1060.1 136.75C1060.12 136.517 1060.2 136.333 1060.35 136.2C1060.52 136.067 1060.71 136 1060.93 136H1071.1C1071.28 136 1071.43 136.058 1071.55 136.175C1071.67 136.292 1071.73 136.442 1071.73 136.625V139.125C1071.73 139.292 1071.67 139.442 1071.55 139.575C1071.43 139.692 1071.28 139.75 1071.1 139.75H1063.83L1063.53 142.825C1063.93 142.542 1064.38 142.333 1064.88 142.2C1065.38 142.05 1066.03 141.975 1066.83 141.975C1067.89 141.975 1068.89 142.217 1069.83 142.7C1070.76 143.167 1071.5 143.833 1072.05 144.7C1072.62 145.567 1072.9 146.558 1072.9 147.675C1072.9 148.842 1072.61 149.892 1072.03 150.825C1071.44 151.742 1070.59 152.467 1069.48 153C1068.38 153.517 1067.08 153.775 1065.58 153.775ZM1082.31 153.75C1080.01 153.733 1078.26 153.125 1077.06 151.925C1075.86 150.725 1075.2 149.142 1075.08 147.175C1075.05 146.275 1075.03 145.467 1075.03 144.75C1075.03 144.017 1075.05 143.183 1075.08 142.25C1075.15 141 1075.46 139.892 1076.01 138.925C1076.58 137.942 1077.38 137.167 1078.43 136.6C1079.5 136.033 1080.79 135.75 1082.31 135.75C1083.83 135.75 1085.12 136.033 1086.18 136.6C1087.25 137.167 1088.06 137.942 1088.61 138.925C1089.18 139.892 1089.49 141 1089.56 142.25C1089.59 142.717 1089.61 143.55 1089.61 144.75C1089.61 145.917 1089.59 146.725 1089.56 147.175C1089.44 149.142 1088.78 150.725 1087.58 151.925C1086.38 153.125 1084.63 153.733 1082.31 153.75ZM1082.31 149.975C1083.09 149.975 1083.68 149.725 1084.06 149.225C1084.44 148.708 1084.65 147.983 1084.68 147.05C1084.72 146.567 1084.73 145.783 1084.73 144.7C1084.73 143.617 1084.72 142.85 1084.68 142.4C1084.65 141.5 1084.44 140.792 1084.06 140.275C1083.68 139.742 1083.09 139.475 1082.31 139.475C1080.81 139.475 1080.02 140.45 1079.93 142.4C1079.92 142.85 1079.91 143.617 1079.91 144.7C1079.91 145.783 1079.92 146.567 1079.93 147.05C1080.02 149 1080.81 149.975 1082.31 149.975ZM1097.37 152.675C1097.21 152.675 1097.06 152.617 1096.92 152.5C1096.81 152.367 1096.75 152.217 1096.75 152.05V147.525H1092.35C1092.18 147.525 1092.03 147.467 1091.9 147.35C1091.78 147.217 1091.72 147.067 1091.72 146.9V144.975C1091.72 144.792 1091.78 144.642 1091.9 144.525C1092.02 144.392 1092.17 144.325 1092.35 144.325H1096.75V139.95C1096.75 139.767 1096.81 139.617 1096.92 139.5C1097.06 139.383 1097.21 139.325 1097.37 139.325H1099.52C1099.71 139.325 1099.86 139.383 1099.97 139.5C1100.11 139.617 1100.17 139.767 1100.17 139.95V144.325H1104.52C1104.71 144.325 1104.86 144.392 1104.97 144.525C1105.11 144.642 1105.17 144.792 1105.17 144.975V146.9C1105.17 147.083 1105.11 147.233 1104.97 147.35C1104.86 147.467 1104.71 147.525 1104.52 147.525H1100.17V152.05C1100.17 152.233 1100.11 152.383 1099.97 152.5C1099.86 152.617 1099.71 152.675 1099.52 152.675H1097.37Z" fill="#0B132A"/>
<path d="M444.5 99.2134V224.787" stroke="#EEEFF2" stroke-width="2" stroke-linecap="round"/>
<path d="M874.5 99.2134V224.787" stroke="#EEEFF2" stroke-width="2" stroke-linecap="round"/>
<rect x="557.5" y="134.5" width="55" height="55" rx="27.5" fill="#FFECEC"/>
<path d="M592 159C592 158.081 591.819 157.17 591.467 156.321C591.115 155.472 590.6 154.7 589.95 154.05C589.3 153.4 588.528 152.885 587.679 152.533C586.83 152.181 585.919 152 585 152C584.081 152 583.17 152.181 582.321 152.533C581.472 152.885 580.7 153.4 580.05 154.05C579.4 154.7 578.885 155.472 578.533 156.321C578.181 157.17 578 158.081 578 159C578 160.387 578.41 161.677 579.105 162.765H579.097C581.457 166.46 585 172 585 172L590.903 162.765H590.896C591.616 161.641 592 160.335 592 159ZM585 162C584.204 162 583.441 161.684 582.879 161.121C582.316 160.559 582 159.796 582 159C582 158.204 582.316 157.441 582.879 156.879C583.441 156.316 584.204 156 585 156C585.796 156 586.559 156.316 587.121 156.879C587.684 157.441 588 158.204 588 159C588 159.796 587.684 160.559 587.121 161.121C586.559 161.684 585.796 162 585 162Z" fill="#DC7000"/>
<rect x="170" y="134.5" width="55" height="55" rx="27.5" fill="#FFECEC"/>
<path fill-rule="evenodd" clip-rule="evenodd" d="M197.5 160.8C198.455 160.8 199.37 160.421 200.046 159.746C200.721 159.071 201.1 158.155 201.1 157.2C201.1 156.245 200.721 155.33 200.046 154.655C199.37 153.979 198.455 153.6 197.5 153.6C196.545 153.6 195.63 153.979 194.954 154.655C194.279 155.33 193.9 156.245 193.9 157.2C193.9 158.155 194.279 159.071 194.954 159.746C195.63 160.421 196.545 160.8 197.5 160.8ZM192.399 171.6C190.577 171.6 189.042 170.069 189.739 168.386C190.162 167.366 190.78 166.44 191.56 165.66C192.34 164.88 193.266 164.262 194.285 163.84C195.305 163.417 196.397 163.2 197.5 163.2C198.603 163.2 199.695 163.417 200.715 163.84C201.734 164.262 202.66 164.88 203.44 165.66C204.22 166.44 204.838 167.366 205.261 168.386C205.958 170.069 204.423 171.6 202.601 171.6H192.399Z" fill="#DC7000"/>
<rect x="966" y="134.5" width="55" height="55" rx="27.5" fill="#FFECEC"/>
<path d="M1001.5 153H985.5C984.97 153 984.461 153.211 984.086 153.586C983.711 153.961 983.5 154.47 983.5 155V159C983.5 159.53 983.711 160.039 984.086 160.414C984.461 160.789 984.97 161 985.5 161H1001.5C1002.03 161 1002.54 160.789 1002.91 160.414C1003.29 160.039 1003.5 159.53 1003.5 159V155C1003.5 154.47 1003.29 153.961 1002.91 153.586C1002.54 153.211 1002.03 153 1001.5 153ZM996.5 157C996.5 157.552 996.052 158 995.5 158C994.948 158 994.5 157.552 994.5 157C994.5 156.448 994.948 156 995.5 156C996.052 156 996.5 156.448 996.5 157ZM1000.5 157C1000.5 157.552 1000.05 158 999.5 158C998.948 158 998.5 157.552 998.5 157C998.5 156.448 998.948 156 999.5 156C1000.05 156 1000.5 156.448 1000.5 157ZM1001.5 163H985.5C984.97 163 984.461 163.211 984.086 163.586C983.711 163.961 983.5 164.47 983.5 165V169C983.5 169.53 983.711 170.039 984.086 170.414C984.461 170.789 984.97 171 985.5 171H1001.5C1002.03 171 1002.54 170.789 1002.91 170.414C1003.29 170.039 1003.5 169.53 1003.5 169V165C1003.5 164.47 1003.29 163.961 1002.91 163.586C1002.54 163.211 1002.03 163 1001.5 163ZM996.5 167C996.5 167.552 996.052 168 995.5 168C994.948 168 994.5 167.552 994.5 167C994.5 166.448 994.948 166 995.5 166C996.052 166 996.5 166.448 996.5 167ZM1000.5 167C1000.5 167.552 1000.05 168 999.5 168C998.948 168 998.5 167.552 998.5 167C998.5 166.448 998.948 166 999.5 166C1000.05 166 1000.5 166.448 1000.5 167Z" fill="#DC7000"/>
<defs>
<filter id="filter0_f_1_1137" x="0.579224" y="0.79834" width="1296.84" height="417.218" filterUnits="userSpaceOnUse" color-interpolation-filters="sRGB">
<feFlood flood-opacity="0" result="BackgroundImageFix"/>
<feBlend mode="normal" in="SourceGraphic" in2="BackgroundImageFix" result="shape"/>
<feGaussianBlur stdDeviation="57" result="effect1_foregroundBlur_1_1137"/>
</filter>
</defs>
</svg>
