<svg width="386" height="48" viewBox="0 0 386 48" fill="none" xmlns="http://www.w3.org/2000/svg">
<rect x="0.321472" width="385.679" height="48" rx="8" fill="white"/>
<rect x="274.767" y="6" width="104.996" height="37" rx="8" fill="#DC7000"/>
<path d="M302.522 24.463C302.522 23.579 302.721 22.786 303.12 22.084C303.519 21.3733 304.06 20.8187 304.745 20.42C305.438 20.0213 306.205 19.822 307.046 19.822C308.034 19.822 308.896 20.0603 309.633 20.537C310.37 21.0137 310.907 21.6897 311.245 22.565H309.828C309.577 22.019 309.213 21.5987 308.736 21.304C308.268 21.0093 307.705 20.862 307.046 20.862C306.413 20.862 305.846 21.0093 305.343 21.304C304.84 21.5987 304.446 22.019 304.16 22.565C303.874 23.1023 303.731 23.735 303.731 24.463C303.731 25.1823 303.874 25.815 304.16 26.361C304.446 26.8983 304.84 27.3143 305.343 27.609C305.846 27.9037 306.413 28.051 307.046 28.051C307.705 28.051 308.268 27.908 308.736 27.622C309.213 27.3273 309.577 26.907 309.828 26.361H311.245C310.907 27.2277 310.37 27.8993 309.633 28.376C308.896 28.844 308.034 29.078 307.046 29.078C306.205 29.078 305.438 28.883 304.745 28.493C304.06 28.0943 303.519 27.544 303.12 26.842C302.721 26.14 302.522 25.347 302.522 24.463ZM316.113 29.117C315.446 29.117 314.839 28.9653 314.293 28.662C313.756 28.3587 313.331 27.9297 313.019 27.375C312.716 26.8117 312.564 26.1617 312.564 25.425C312.564 24.697 312.72 24.0557 313.032 23.501C313.353 22.9377 313.786 22.5087 314.332 22.214C314.878 21.9107 315.489 21.759 316.165 21.759C316.841 21.759 317.452 21.9107 317.998 22.214C318.544 22.5087 318.973 22.9333 319.285 23.488C319.606 24.0427 319.766 24.6883 319.766 25.425C319.766 26.1617 319.601 26.8117 319.272 27.375C318.951 27.9297 318.514 28.3587 317.959 28.662C317.404 28.9653 316.789 29.117 316.113 29.117ZM316.113 28.077C316.538 28.077 316.936 27.9773 317.309 27.778C317.682 27.5787 317.981 27.2797 318.206 26.881C318.44 26.4823 318.557 25.997 318.557 25.425C318.557 24.853 318.444 24.3677 318.219 23.969C317.994 23.5703 317.699 23.2757 317.335 23.085C316.971 22.8857 316.577 22.786 316.152 22.786C315.719 22.786 315.32 22.8857 314.956 23.085C314.601 23.2757 314.315 23.5703 314.098 23.969C313.881 24.3677 313.773 24.853 313.773 25.425C313.773 26.0057 313.877 26.4953 314.085 26.894C314.302 27.2927 314.588 27.5917 314.943 27.791C315.298 27.9817 315.688 28.077 316.113 28.077ZM324.793 21.746C325.659 21.746 326.361 22.0103 326.899 22.539C327.436 23.059 327.705 23.813 327.705 24.801V29H326.535V24.97C326.535 24.2593 326.357 23.7177 326.002 23.345C325.646 22.9637 325.161 22.773 324.546 22.773C323.922 22.773 323.423 22.968 323.051 23.358C322.687 23.748 322.505 24.3157 322.505 25.061V29H321.322V21.876H322.505V22.89C322.739 22.526 323.055 22.2443 323.454 22.045C323.861 21.8457 324.307 21.746 324.793 21.746ZM331.08 22.851V27.05C331.08 27.3967 331.154 27.6437 331.301 27.791C331.448 27.9297 331.704 27.999 332.068 27.999H332.939V29H331.873C331.214 29 330.72 28.8483 330.391 28.545C330.062 28.2417 329.897 27.7433 329.897 27.05V22.851H328.974V21.876H329.897V20.082H331.08V21.876H332.939V22.851H331.08ZM334.983 20.719C334.758 20.719 334.567 20.641 334.411 20.485C334.255 20.329 334.177 20.1383 334.177 19.913C334.177 19.6877 334.255 19.497 334.411 19.341C334.567 19.185 334.758 19.107 334.983 19.107C335.2 19.107 335.382 19.185 335.529 19.341C335.685 19.497 335.763 19.6877 335.763 19.913C335.763 20.1383 335.685 20.329 335.529 20.485C335.382 20.641 335.2 20.719 334.983 20.719ZM335.555 21.876V29H334.372V21.876H335.555ZM341.043 21.746C341.909 21.746 342.611 22.0103 343.149 22.539C343.686 23.059 343.955 23.813 343.955 24.801V29H342.785V24.97C342.785 24.2593 342.607 23.7177 342.252 23.345C341.896 22.9637 341.411 22.773 340.796 22.773C340.172 22.773 339.673 22.968 339.301 23.358C338.937 23.748 338.755 24.3157 338.755 25.061V29H337.572V21.876H338.755V22.89C338.989 22.526 339.305 22.2443 339.704 22.045C340.111 21.8457 340.557 21.746 341.043 21.746ZM352.205 21.876V29H351.022V27.947C350.797 28.311 350.48 28.597 350.073 28.805C349.674 29.0043 349.232 29.104 348.747 29.104C348.192 29.104 347.694 28.9913 347.252 28.766C346.81 28.532 346.459 28.1853 346.199 27.726C345.948 27.2667 345.822 26.7077 345.822 26.049V21.876H346.992V25.893C346.992 26.595 347.17 27.1367 347.525 27.518C347.88 27.8907 348.366 28.077 348.981 28.077C349.614 28.077 350.112 27.882 350.476 27.492C350.84 27.102 351.022 26.5343 351.022 25.789V21.876H352.205ZM360.702 25.165C360.702 25.3903 360.689 25.6287 360.663 25.88H354.969C355.013 26.582 355.251 27.1323 355.684 27.531C356.126 27.921 356.659 28.116 357.283 28.116C357.795 28.116 358.219 27.999 358.557 27.765C358.904 27.5223 359.147 27.2017 359.285 26.803H360.559C360.369 27.4877 359.987 28.0467 359.415 28.48C358.843 28.9047 358.133 29.117 357.283 29.117C356.607 29.117 356.001 28.9653 355.463 28.662C354.935 28.3587 354.519 27.9297 354.215 27.375C353.912 26.8117 353.76 26.1617 353.76 25.425C353.76 24.6883 353.908 24.0427 354.202 23.488C354.497 22.9333 354.909 22.5087 355.437 22.214C355.975 21.9107 356.59 21.759 357.283 21.759C357.959 21.759 358.557 21.9063 359.077 22.201C359.597 22.4957 359.996 22.903 360.273 23.423C360.559 23.9343 360.702 24.515 360.702 25.165ZM359.48 24.918C359.48 24.4673 359.381 24.0817 359.181 23.761C358.982 23.4317 358.709 23.1847 358.362 23.02C358.024 22.8467 357.647 22.76 357.231 22.76C356.633 22.76 356.122 22.9507 355.697 23.332C355.281 23.7133 355.043 24.242 354.982 24.918H359.48Z" fill="white"/>
<path d="M36.4709 20.654V24.047H39.9159V24.801H36.4709V28.246H40.3059V29H35.5609V19.9H40.3059V20.654H36.4709ZM45.427 21.772C46.2763 21.772 46.9697 22.0363 47.507 22.565C48.0443 23.085 48.313 23.8433 48.313 24.84V29H47.416V24.944C47.416 24.1727 47.221 23.5833 46.831 23.176C46.4497 22.7687 45.9253 22.565 45.258 22.565C44.5733 22.565 44.0273 22.7817 43.62 23.215C43.2127 23.6483 43.009 24.2853 43.009 25.126V29H42.099V21.902H43.009V23.111C43.2343 22.6777 43.5593 22.3483 43.984 22.123C44.4087 21.889 44.8897 21.772 45.427 21.772ZM51.5086 22.669V27.076C51.5086 27.5093 51.5909 27.8083 51.7556 27.973C51.9202 28.1377 52.2106 28.22 52.6266 28.22H53.4586V29H52.4836C51.8422 29 51.3656 28.8527 51.0536 28.558C50.7416 28.2547 50.5856 27.7607 50.5856 27.076V22.669H49.5976V21.902H50.5856V20.121H51.5086V21.902H53.4586V22.669H51.5086ZM61.3813 25.087C61.3813 25.399 61.3727 25.6373 61.3554 25.802H55.4663C55.4923 26.3393 55.6223 26.7987 55.8563 27.18C56.0903 27.5613 56.398 27.8517 56.7793 28.051C57.1607 28.2417 57.5767 28.337 58.0273 28.337C58.6167 28.337 59.1107 28.194 59.5093 27.908C59.9167 27.622 60.1853 27.2363 60.3153 26.751H61.2774C61.104 27.4443 60.7313 28.012 60.1593 28.454C59.596 28.8873 58.8853 29.104 58.0273 29.104C57.36 29.104 56.762 28.9567 56.2333 28.662C55.7047 28.3587 55.2887 27.934 54.9853 27.388C54.6907 26.8333 54.5433 26.1877 54.5433 25.451C54.5433 24.7143 54.6907 24.0687 54.9853 23.514C55.28 22.9593 55.6917 22.5347 56.2203 22.24C56.749 21.9453 57.3513 21.798 58.0273 21.798C58.7033 21.798 59.2927 21.9453 59.7953 22.24C60.3067 22.5347 60.6967 22.9333 60.9654 23.436C61.2427 23.93 61.3813 24.4803 61.3813 25.087ZM60.4583 25.061C60.467 24.5323 60.3587 24.0817 60.1333 23.709C59.9167 23.3363 59.6177 23.0547 59.2363 22.864C58.855 22.6733 58.439 22.578 57.9883 22.578C57.3123 22.578 56.736 22.7947 56.2593 23.228C55.7827 23.6613 55.5183 24.2723 55.4663 25.061H60.4583ZM63.9563 23.163C64.1556 22.721 64.4589 22.3787 64.8663 22.136C65.2823 21.8933 65.7893 21.772 66.3873 21.772V22.721H66.1403C65.4816 22.721 64.9529 22.8987 64.5543 23.254C64.1556 23.6093 63.9563 24.203 63.9563 25.035V29H63.0463V21.902H63.9563V23.163ZM77.7456 25.087C77.7456 25.399 77.7369 25.6373 77.7196 25.802H71.8306C71.8566 26.3393 71.9866 26.7987 72.2206 27.18C72.4546 27.5613 72.7623 27.8517 73.1436 28.051C73.5249 28.2417 73.9409 28.337 74.3916 28.337C74.9809 28.337 75.4749 28.194 75.8736 27.908C76.2809 27.622 76.5496 27.2363 76.6796 26.751H77.6416C77.4683 27.4443 77.0956 28.012 76.5236 28.454C75.9603 28.8873 75.2496 29.104 74.3916 29.104C73.7243 29.104 73.1263 28.9567 72.5976 28.662C72.0689 28.3587 71.6529 27.934 71.3496 27.388C71.0549 26.8333 70.9076 26.1877 70.9076 25.451C70.9076 24.7143 71.0549 24.0687 71.3496 23.514C71.6443 22.9593 72.0559 22.5347 72.5846 22.24C73.1133 21.9453 73.7156 21.798 74.3916 21.798C75.0676 21.798 75.6569 21.9453 76.1596 22.24C76.6709 22.5347 77.0609 22.9333 77.3296 23.436C77.6069 23.93 77.7456 24.4803 77.7456 25.087ZM76.8226 25.061C76.8313 24.5323 76.7229 24.0817 76.4976 23.709C76.2809 23.3363 75.9819 23.0547 75.6006 22.864C75.2193 22.6733 74.8033 22.578 74.3526 22.578C73.6766 22.578 73.1003 22.7947 72.6236 23.228C72.1469 23.6613 71.8826 24.2723 71.8306 25.061H76.8226ZM87.8605 21.772C88.6925 21.772 89.3685 22.0363 89.8885 22.565C90.4172 23.085 90.6815 23.8433 90.6815 24.84V29H89.7845V24.944C89.7845 24.1727 89.5982 23.5833 89.2255 23.176C88.8529 22.7687 88.3459 22.565 87.7045 22.565C87.0372 22.565 86.5042 22.786 86.1055 23.228C85.7069 23.67 85.5075 24.3113 85.5075 25.152V29H84.6105V24.944C84.6105 24.1727 84.4242 23.5833 84.0515 23.176C83.6789 22.7687 83.1675 22.565 82.5175 22.565C81.8502 22.565 81.3172 22.786 80.9185 23.228C80.5199 23.67 80.3205 24.3113 80.3205 25.152V29H79.4105V21.902H80.3205V23.124C80.5459 22.682 80.8665 22.3483 81.2825 22.123C81.6985 21.889 82.1622 21.772 82.6735 21.772C83.2889 21.772 83.8262 21.9193 84.2855 22.214C84.7535 22.5087 85.0915 22.942 85.2995 23.514C85.4902 22.9507 85.8152 22.5217 86.2745 22.227C86.7425 21.9237 87.2712 21.772 87.8605 21.772ZM92.2865 25.438C92.2865 24.71 92.4295 24.073 92.7155 23.527C93.0102 22.9723 93.4132 22.5477 93.9245 22.253C94.4445 21.9497 95.0295 21.798 95.6795 21.798C96.3555 21.798 96.9362 21.954 97.4215 22.266C97.9155 22.578 98.2708 22.9767 98.4875 23.462V21.902H99.3975V29H98.4875V27.427C98.2622 27.9123 97.9025 28.3153 97.4085 28.636C96.9232 28.948 96.3425 29.104 95.6665 29.104C95.0252 29.104 94.4445 28.9523 93.9245 28.649C93.4132 28.3457 93.0102 27.9167 92.7155 27.362C92.4295 26.8073 92.2865 26.166 92.2865 25.438ZM98.4875 25.451C98.4875 24.879 98.3705 24.3763 98.1365 23.943C97.9025 23.5097 97.5818 23.176 97.1745 22.942C96.7758 22.708 96.3338 22.591 95.8485 22.591C95.3458 22.591 94.8952 22.7037 94.4965 22.929C94.0978 23.1543 93.7815 23.4837 93.5475 23.917C93.3222 24.3417 93.2095 24.8487 93.2095 25.438C93.2095 26.0187 93.3222 26.53 93.5475 26.972C93.7815 27.4053 94.0978 27.739 94.4965 27.973C94.8952 28.1983 95.3458 28.311 95.8485 28.311C96.3338 28.311 96.7758 28.194 97.1745 27.96C97.5818 27.726 97.9025 27.3923 98.1365 26.959C98.3705 26.5257 98.4875 26.023 98.4875 25.451ZM101.93 20.563C101.748 20.563 101.592 20.498 101.462 20.368C101.332 20.238 101.267 20.0777 101.267 19.887C101.267 19.6963 101.332 19.5403 101.462 19.419C101.592 19.289 101.748 19.224 101.93 19.224C102.112 19.224 102.268 19.289 102.398 19.419C102.528 19.5403 102.593 19.6963 102.593 19.887C102.593 20.0777 102.528 20.238 102.398 20.368C102.268 20.498 102.112 20.563 101.93 20.563ZM102.385 21.902V29H101.475V21.902H102.385ZM105.356 19.38V29H104.446V19.38H105.356ZM110.568 25.438C110.568 24.71 110.711 24.073 110.997 23.527C111.291 22.9723 111.694 22.5477 112.206 22.253C112.726 21.9497 113.311 21.798 113.961 21.798C114.637 21.798 115.217 21.954 115.703 22.266C116.197 22.578 116.552 22.9767 116.769 23.462V21.902H117.679V29H116.769V27.427C116.543 27.9123 116.184 28.3153 115.69 28.636C115.204 28.948 114.624 29.104 113.948 29.104C113.306 29.104 112.726 28.9523 112.206 28.649C111.694 28.3457 111.291 27.9167 110.997 27.362C110.711 26.8073 110.568 26.166 110.568 25.438ZM116.769 25.451C116.769 24.879 116.652 24.3763 116.418 23.943C116.184 23.5097 115.863 23.176 115.456 22.942C115.057 22.708 114.615 22.591 114.13 22.591C113.627 22.591 113.176 22.7037 112.778 22.929C112.379 23.1543 112.063 23.4837 111.829 23.917C111.603 24.3417 111.491 24.8487 111.491 25.438C111.491 26.0187 111.603 26.53 111.829 26.972C112.063 27.4053 112.379 27.739 112.778 27.973C113.176 28.1983 113.627 28.311 114.13 28.311C114.615 28.311 115.057 28.194 115.456 27.96C115.863 27.726 116.184 27.3923 116.418 26.959C116.652 26.5257 116.769 26.023 116.769 25.451ZM119.34 25.438C119.34 24.71 119.488 24.073 119.782 23.527C120.077 22.9723 120.48 22.5477 120.991 22.253C121.511 21.9497 122.096 21.798 122.746 21.798C123.37 21.798 123.934 21.9497 124.436 22.253C124.939 22.5563 125.307 22.9507 125.541 23.436V19.38H126.451V29H125.541V27.414C125.325 27.908 124.969 28.3153 124.475 28.636C123.981 28.948 123.401 29.104 122.733 29.104C122.083 29.104 121.498 28.9523 120.978 28.649C120.467 28.3457 120.064 27.9167 119.769 27.362C119.483 26.8073 119.34 26.166 119.34 25.438ZM125.541 25.451C125.541 24.879 125.424 24.3763 125.19 23.943C124.956 23.5097 124.636 23.176 124.228 22.942C123.83 22.708 123.388 22.591 122.902 22.591C122.4 22.591 121.949 22.7037 121.55 22.929C121.152 23.1543 120.835 23.4837 120.601 23.917C120.376 24.3417 120.263 24.8487 120.263 25.438C120.263 26.0187 120.376 26.53 120.601 26.972C120.835 27.4053 121.152 27.739 121.55 27.973C121.949 28.1983 122.4 28.311 122.902 28.311C123.388 28.311 123.83 28.194 124.228 27.96C124.636 27.726 124.956 27.3923 125.19 26.959C125.424 26.5257 125.541 26.023 125.541 25.451ZM128.113 25.438C128.113 24.71 128.26 24.073 128.555 23.527C128.849 22.9723 129.252 22.5477 129.764 22.253C130.284 21.9497 130.869 21.798 131.519 21.798C132.143 21.798 132.706 21.9497 133.209 22.253C133.711 22.5563 134.08 22.9507 134.314 23.436V19.38H135.224V29H134.314V27.414C134.097 27.908 133.742 28.3153 133.248 28.636C132.754 28.948 132.173 29.104 131.506 29.104C130.856 29.104 130.271 28.9523 129.751 28.649C129.239 28.3457 128.836 27.9167 128.542 27.362C128.256 26.8073 128.113 26.166 128.113 25.438ZM134.314 25.451C134.314 24.879 134.197 24.3763 133.963 23.943C133.729 23.5097 133.408 23.176 133.001 22.942C132.602 22.708 132.16 22.591 131.675 22.591C131.172 22.591 130.721 22.7037 130.323 22.929C129.924 23.1543 129.608 23.4837 129.374 23.917C129.148 24.3417 129.036 24.8487 129.036 25.438C129.036 26.0187 129.148 26.53 129.374 26.972C129.608 27.4053 129.924 27.739 130.323 27.973C130.721 28.1983 131.172 28.311 131.675 28.311C132.16 28.311 132.602 28.194 133.001 27.96C133.408 27.726 133.729 27.3923 133.963 26.959C134.197 26.5257 134.314 26.023 134.314 25.451ZM138.211 23.163C138.41 22.721 138.714 22.3787 139.121 22.136C139.537 21.8933 140.044 21.772 140.642 21.772V22.721H140.395C139.736 22.721 139.208 22.8987 138.809 23.254C138.41 23.6093 138.211 24.203 138.211 25.035V29H137.301V21.902H138.211V23.163ZM148.433 25.087C148.433 25.399 148.424 25.6373 148.407 25.802H142.518C142.544 26.3393 142.674 26.7987 142.908 27.18C143.142 27.5613 143.45 27.8517 143.831 28.051C144.212 28.2417 144.628 28.337 145.079 28.337C145.668 28.337 146.162 28.194 146.561 27.908C146.968 27.622 147.237 27.2363 147.367 26.751H148.329C148.156 27.4443 147.783 28.012 147.211 28.454C146.648 28.8873 145.937 29.104 145.079 29.104C144.412 29.104 143.814 28.9567 143.285 28.662C142.756 28.3587 142.34 27.934 142.037 27.388C141.742 26.8333 141.595 26.1877 141.595 25.451C141.595 24.7143 141.742 24.0687 142.037 23.514C142.332 22.9593 142.743 22.5347 143.272 22.24C143.801 21.9453 144.403 21.798 145.079 21.798C145.755 21.798 146.344 21.9453 146.847 22.24C147.358 22.5347 147.748 22.9333 148.017 23.436C148.294 23.93 148.433 24.4803 148.433 25.087ZM147.51 25.061C147.519 24.5323 147.41 24.0817 147.185 23.709C146.968 23.3363 146.669 23.0547 146.288 22.864C145.907 22.6733 145.491 22.578 145.04 22.578C144.364 22.578 143.788 22.7947 143.311 23.228C142.834 23.6613 142.57 24.2723 142.518 25.061H147.51ZM152.542 29.104C151.727 29.104 151.06 28.9177 150.54 28.545C150.029 28.1637 149.743 27.648 149.682 26.998H150.618C150.661 27.3967 150.848 27.7217 151.177 27.973C151.515 28.2157 151.966 28.337 152.529 28.337C153.023 28.337 153.409 28.22 153.686 27.986C153.972 27.752 154.115 27.4617 154.115 27.115C154.115 26.8723 154.037 26.673 153.881 26.517C153.725 26.361 153.526 26.2397 153.283 26.153C153.049 26.0577 152.728 25.958 152.321 25.854C151.792 25.7153 151.363 25.5767 151.034 25.438C150.705 25.2993 150.423 25.0957 150.189 24.827C149.964 24.5497 149.851 24.1813 149.851 23.722C149.851 23.3753 149.955 23.0547 150.163 22.76C150.371 22.4653 150.666 22.2313 151.047 22.058C151.428 21.8847 151.862 21.798 152.347 21.798C153.11 21.798 153.725 21.993 154.193 22.383C154.661 22.7643 154.912 23.293 154.947 23.969H154.037C154.011 23.553 153.846 23.2193 153.543 22.968C153.248 22.708 152.841 22.578 152.321 22.578C151.862 22.578 151.489 22.6863 151.203 22.903C150.917 23.1197 150.774 23.3883 150.774 23.709C150.774 23.9863 150.856 24.216 151.021 24.398C151.194 24.5713 151.407 24.71 151.658 24.814C151.909 24.9093 152.247 25.0177 152.672 25.139C153.183 25.2777 153.591 25.412 153.894 25.542C154.197 25.672 154.457 25.8627 154.674 26.114C154.891 26.3653 155.003 26.699 155.012 27.115C155.012 27.4963 154.908 27.8387 154.7 28.142C154.492 28.4367 154.202 28.6707 153.829 28.844C153.456 29.0173 153.027 29.104 152.542 29.104ZM159.169 29.104C158.354 29.104 157.687 28.9177 157.167 28.545C156.656 28.1637 156.37 27.648 156.309 26.998H157.245C157.288 27.3967 157.475 27.7217 157.804 27.973C158.142 28.2157 158.593 28.337 159.156 28.337C159.65 28.337 160.036 28.22 160.313 27.986C160.599 27.752 160.742 27.4617 160.742 27.115C160.742 26.8723 160.664 26.673 160.508 26.517C160.352 26.361 160.153 26.2397 159.91 26.153C159.676 26.0577 159.355 25.958 158.948 25.854C158.419 25.7153 157.99 25.5767 157.661 25.438C157.332 25.2993 157.05 25.0957 156.816 24.827C156.591 24.5497 156.478 24.1813 156.478 23.722C156.478 23.3753 156.582 23.0547 156.79 22.76C156.998 22.4653 157.293 22.2313 157.674 22.058C158.055 21.8847 158.489 21.798 158.974 21.798C159.737 21.798 160.352 21.993 160.82 22.383C161.288 22.7643 161.539 23.293 161.574 23.969H160.664C160.638 23.553 160.473 23.2193 160.17 22.968C159.875 22.708 159.468 22.578 158.948 22.578C158.489 22.578 158.116 22.6863 157.83 22.903C157.544 23.1197 157.401 23.3883 157.401 23.709C157.401 23.9863 157.483 24.216 157.648 24.398C157.821 24.5713 158.034 24.71 158.285 24.814C158.536 24.9093 158.874 25.0177 159.299 25.139C159.81 25.2777 160.218 25.412 160.521 25.542C160.824 25.672 161.084 25.8627 161.301 26.114C161.518 26.3653 161.63 26.699 161.639 27.115C161.639 27.4963 161.535 27.8387 161.327 28.142C161.119 28.4367 160.829 28.6707 160.456 28.844C160.083 29.0173 159.654 29.104 159.169 29.104Z" fill="#898989"/>
</svg>
